<?xml version="1.0" standalone="no"?>
<!DOCTYPE svg PUBLIC "-//W3C//DTD SVG 20010904//EN"
 "http://www.w3.org/TR/2001/REC-SVG-20010904/DTD/svg10.dtd">
<svg version="1.0" xmlns="http://www.w3.org/2000/svg"
 width="516.000000pt" height="61.000000pt" viewBox="0 0 516.000000 61.000000"
 preserveAspectRatio="xMidYMid meet">

<g transform="translate(0.000000,61.000000) scale(0.100000,-0.100000)"
fill="#f43e3a" stroke="none">
<path d="M225 492 c-81 -27 -125 -89 -125 -176 0 -70 18 -114 59 -149 69 -58
170 -59 244 -3 52 40 56 71 12 97 -41 24 -54 23 -81 -6 -26 -29 -60 -32 -92
-9 -30 21 -33 118 -3 134 36 19 78 12 100 -16 l21 -26 45 26 c25 15 45 31 45
35 0 20 -45 63 -85 81 -43 20 -101 24 -140 12z m141 -43 c17 -8 30 -24 32 -37
3 -18 -1 -22 -22 -22 -14 0 -26 4 -26 8 0 4 -15 14 -34 20 -90 33 -159 -64
-117 -165 22 -53 96 -70 144 -33 30 24 53 26 61 5 3 -9 -7 -24 -28 -40 -26
-20 -44 -25 -90 -25 -103 0 -156 51 -156 152 0 99 68 161 166 154 22 -2 53 -9
70 -17z"/>
<path d="M558 490 c-23 -6 -23 -8 -26 -169 -2 -115 1 -168 9 -178 8 -9 27 -13
58 -11 l46 3 5 55 c5 55 5 55 41 58 44 4 66 -19 71 -73 l3 -40 55 0 55 0 -3
60 c-2 33 -10 70 -17 82 -12 18 -12 23 -1 32 38 32 27 121 -19 157 -30 22 -43
25 -143 27 -61 1 -121 0 -134 -3z m268 -54 c8 -11 14 -37 14 -58 0 -30 -6 -42
-30 -60 l-30 -22 26 -21 c22 -17 27 -30 28 -66 1 -38 -2 -44 -20 -47 -23 -3
-34 19 -34 69 0 34 -39 51 -106 47 l-49 -3 -5 -55 c-4 -43 -9 -56 -24 -58 -10
-2 -21 1 -25 6 -9 15 -14 248 -6 273 7 20 12 21 127 18 104 -4 121 -6 134 -23z"/>
<path d="M636 417 c-13 -9 -17 -24 -14 -52 l3 -40 70 -3 c57 -2 72 0 82 14 19
26 16 62 -7 74 -32 17 -114 21 -134 7z m122 -44 c-2 -13 -15 -19 -47 -21 -24
-2 -48 1 -53 6 -19 19 3 32 53 32 43 0 50 -3 47 -17z"/>
<path d="M983 485 c-11 -8 -13 -45 -11 -180 l3 -170 160 0 160 0 3 43 3 42
-78 1 c-126 2 -128 2 -128 24 0 18 8 20 73 23 l72 3 0 43 c0 52 -7 56 -92 56
-43 0 -59 3 -56 13 3 8 36 14 99 17 l94 5 3 43 c3 41 3 42 -30 43 -192 4 -263
2 -275 -6z m277 -40 c0 -11 -20 -15 -97 -17 l-98 -3 -3 -42 -3 -42 44 -6 c25
-4 54 -4 65 -1 11 4 24 0 31 -8 15 -18 -4 -24 -84 -28 l-50 -3 0 -45 0 -45 98
-3 c89 -2 97 -4 97 -22 0 -19 -7 -20 -125 -20 l-125 0 0 150 0 150 125 0 c103
0 125 -3 125 -15z"/>
<path d="M1815 490 c-36 -5 -40 -8 -43 -36 -4 -41 22 -68 58 -61 45 10 49 0
52 -133 l3 -125 55 0 55 0 3 128 3 127 30 0 c51 0 69 16 69 60 0 31 -4 40 -17
41 -71 4 -235 3 -268 -1z m252 -47 c3 -8 -12 -13 -44 -15 l-48 -3 -2 -110 c-4
-141 -7 -157 -36 -153 -21 3 -22 8 -27 133 l-5 130 -47 3 c-34 2 -48 7 -48 18
0 12 20 14 127 12 87 -2 128 -7 130 -15z"/>
<path d="M2248 492 l-48 -3 0 -180 0 -180 158 3 157 3 3 43 3 42 -94 0 c-74 0
-97 3 -108 16 -18 22 -1 31 68 33 31 1 60 4 64 7 5 3 9 22 9 44 0 45 -9 50
-91 50 -32 0 -59 4 -59 10 0 14 33 20 125 22 l80 3 3 34 c2 18 -1 38 -7 44
-10 10 -166 15 -263 9z m232 -47 c0 -6 -37 -11 -87 -13 -48 -2 -93 -8 -100
-14 -15 -12 -18 -64 -4 -73 5 -3 38 -7 73 -9 44 -3 63 -8 63 -17 0 -10 -20
-15 -70 -19 l-70 -5 0 -45 0 -45 100 -5 c85 -4 100 -8 103 -23 3 -16 -6 -17
-125 -15 l-128 3 -3 148 -3 148 126 -3 c75 -2 125 -7 125 -13z"/>
<path d="M2809 488 c-18 -7 -19 -16 -17 -180 l3 -173 49 -3 c58 -4 66 4 66 71
0 47 0 47 33 47 48 0 66 -18 69 -70 l3 -45 55 0 55 0 -3 55 c-2 30 -8 67 -13
82 -9 21 -8 32 5 50 9 12 16 40 16 62 0 31 -7 45 -36 72 -38 36 -28 35 -207
38 -32 1 -67 -2 -78 -6z m246 -38 c54 -21 56 -108 3 -136 l-31 -16 31 -25 c28
-21 32 -31 32 -69 0 -41 -2 -45 -22 -42 -16 2 -24 11 -26 28 -8 73 -28 90
-106 90 -52 0 -64 -12 -68 -70 -2 -37 -6 -45 -23 -45 -19 0 -20 8 -23 134 -1
74 0 141 2 148 6 16 190 18 231 3z"/>
<path d="M2892 419 c-20 -7 -23 -15 -20 -51 l3 -43 75 0 c70 0 75 1 90 27 14
26 13 29 -6 48 -23 24 -104 35 -142 19z m118 -49 c0 -17 -7 -20 -50 -20 -43 0
-50 3 -50 20 0 17 7 20 50 20 43 0 50 -3 50 -20z"/>
<path d="M3318 492 l-77 -3 -3 -170 c-2 -94 0 -175 3 -180 3 -6 73 -8 160 -7
l154 3 3 43 3 42 -93 0 c-99 0 -125 8 -115 34 5 12 21 16 72 16 36 0 66 3 66
8 14 79 3 92 -76 92 -50 0 -65 3 -65 15 0 11 20 15 98 17 l97 3 3 43 c2 29 -1
42 -10 43 -38 3 -152 4 -220 1z m199 -49 c3 -9 -22 -13 -94 -15 l-98 -3 -3
-34 c-4 -44 6 -53 70 -58 64 -4 81 -10 73 -23 -3 -5 -38 -10 -76 -10 l-70 0 3
-47 3 -48 100 -5 c80 -4 100 -8 100 -20 0 -13 -21 -15 -130 -15 l-130 0 -3
134 c-1 74 0 141 3 148 6 18 246 14 252 -4z"/>
<path d="M3739 482 c-50 -24 -68 -40 -90 -83 -41 -81 -13 -197 58 -242 83 -54
171 -48 239 17 24 23 44 47 44 52 0 11 -65 54 -81 54 -6 0 -24 -11 -41 -25
-52 -44 -101 -27 -114 39 -10 54 13 90 59 94 30 3 41 -2 60 -24 22 -26 24 -26
53 -11 51 26 58 41 38 76 -37 63 -149 89 -225 53z m143 -26 c40 -17 63 -41 53
-56 -9 -15 -23 -13 -71 10 -34 17 -47 19 -70 10 -55 -21 -74 -48 -74 -106 0
-43 5 -57 29 -83 36 -38 88 -42 132 -10 32 22 59 20 59 -6 0 -28 -60 -55 -121
-55 -67 0 -115 27 -141 80 -66 132 68 273 204 216z"/>
<path d="M4340 490 l-35 -5 0 -175 0 -175 55 0 55 0 3 50 c2 27 8 55 14 62 6
8 35 13 74 13 52 0 68 4 91 24 25 22 28 31 28 86 0 58 -2 64 -34 90 -31 26
-42 29 -125 32 -50 2 -107 1 -126 -2z m220 -44 c28 -13 47 -68 37 -108 -10
-37 -62 -58 -141 -58 l-66 0 0 -44 c0 -54 -8 -76 -26 -76 -26 0 -34 40 -33
159 2 121 4 135 27 142 24 8 177 -3 202 -15z"/>
<path d="M4418 423 c-26 -4 -28 -8 -28 -54 l0 -49 65 0 c57 0 66 3 81 25 21
32 10 61 -28 74 -31 11 -40 11 -90 4z m92 -53 c0 -17 -7 -20 -39 -20 -24 0
-41 5 -44 14 -8 20 2 26 45 26 31 0 38 -3 38 -20z"/>
<path d="M4748 492 l-28 -3 0 -180 0 -179 155 0 c146 0 155 1 165 21 7 11 9
32 6 45 -6 22 -11 23 -104 26 -89 3 -97 5 -97 23 0 18 8 21 70 25 l70 5 3 35
c5 46 -17 60 -91 60 -42 0 -58 3 -55 13 3 8 36 14 99 17 l94 5 3 34 c2 18 -1
38 -6 43 -8 8 -229 16 -284 10z m252 -47 c0 -6 -37 -11 -87 -13 -48 -2 -93 -8
-100 -14 -16 -13 -17 -64 -1 -74 7 -4 39 -9 73 -10 42 -2 60 -7 60 -16 0 -9
-20 -14 -67 -16 -62 -3 -68 -5 -74 -26 -3 -13 -4 -35 -2 -47 3 -23 6 -24 106
-27 94 -2 102 -4 102 -23 0 -19 -6 -19 -127 -17 l-128 3 -3 134 c-1 74 0 141
3 148 3 11 32 13 125 11 71 -2 120 -7 120 -13z"/>
<path d="M1490 480 c0 -6 -9 -29 -19 -53 -11 -23 -36 -87 -56 -142 -19 -55
-40 -110 -45 -123 -12 -28 1 -35 60 -30 42 3 52 11 64 51 4 13 17 17 59 17 51
0 54 -2 68 -33 13 -29 19 -32 63 -35 27 -2 53 1 58 6 8 8 -3 48 -32 117 -5 11
-16 43 -25 70 -9 28 -22 64 -29 80 -7 17 -18 42 -24 58 -11 26 -15 27 -77 27
-37 0 -65 -4 -65 -10z m108 -32 c18 -22 102 -249 102 -275 0 -25 -44 -10 -58
19 -13 27 -16 28 -93 28 -54 0 -79 -4 -79 -12 0 -16 -31 -48 -47 -48 -18 0
-16 24 7 72 11 23 20 47 20 53 0 6 9 30 20 53 11 22 20 46 20 52 0 6 7 24 15
40 13 24 22 30 49 30 18 0 38 -6 44 -12z"/>
<path d="M1521 358 c-33 -93 -33 -93 23 -96 76 -5 77 -4 47 82 -14 42 -31 76
-37 76 -6 0 -21 -28 -33 -62z m49 -48 c0 -11 -7 -20 -15 -20 -8 0 -15 9 -15
20 0 11 7 20 15 20 8 0 15 -9 15 -20z"/>
<path d="M4074 477 c-2 -7 -3 -87 -2 -177 l3 -165 50 0 50 0 5 130 c3 72 4
151 2 178 l-3 47 -50 0 c-31 0 -51 -5 -55 -13z m76 -168 c0 -150 0 -150 -22
-147 -23 3 -23 6 -26 151 l-3 147 26 0 25 0 0 -151z"/>
</g>
</svg>
