<?xml version="1.0" standalone="no"?>

<!DOCTYPE svg PUBLIC "-//W3C//DTD SVG 20010904//EN"

 "http://www.w3.org/TR/2001/REC-SVG-20010904/DTD/svg10.dtd">

<svg version="1.0" xmlns="http://www.w3.org/2000/svg"

 width="150.000000pt" height="18.000000pt" viewBox="0 0 150.000000 18.000000"

 preserveAspectRatio="xMidYMid meet">

<path fill="#de6365" stroke="none" d="
M0 9

L0 0

L75 0

L150 0

L150 9

L150 18

L75 18

L0 18

L0 9

Z

"/>

<path fill="#d77373" stroke="none" d="
M0 9

L0 0

L52 0

L103 0

L103 2

L104 5

L104 2

L105 0

L128 0

L150 0

L150 9

L150 18

L75 18

L0 18

L0 9

Z

M14 14

L14 12

L13 12

L11 12

L11 14

L11 15

L13 15

L14 15

L14 14

Z

M98 5

L98 4

L97 4

L95 4

L95 6

L95 7

L96 7

C97 7 98 6 98 5

Z

M14 4

L14 2

L13 2

L11 2

L11 4

L11 5

L13 5

L14 5

L14 4

Z

"/>

<path fill="#e0716f" stroke="none" d="
M0 9

L0 0

L52 0

L103 0

L103 2

L104 5

L104 2

L105 0

L128 0

L150 0

L150 9

L150 18

L75 18

L0 18

L0 9

Z

M107 15

L107 14

L106 14

L104 14

L104 15

L104 16

L106 16

L107 16

L107 15

Z

M14 14

L14 12

L13 12

L11 12

L11 14

L11 15

L13 15

L14 15

L14 14

Z

M98 5

L98 4

L97 4

L95 4

L95 6

L95 7

L96 7

C97 7 98 6 98 5

Z

M14 4

L14 2

L13 2

L11 2

L11 4

L11 5

L13 5

L14 5

L14 4

Z

"/>

<path fill="#de7278" stroke="none" d="
M0 9

L0 0

L52 0

L103 0

L103 2

L103 4

L104 4

L105 4

L106 2

L106 0

L128 0

L150 0

L150 9

L150 18

L75 18

L0 18

L0 9

Z

M107 15

L107 14

L106 14

L104 14

L104 15

L104 16

L106 16

L107 16

L107 15

Z

M15 13

L15 12

L13 12

L11 12

L11 14

L11 15

L13 15

C14 15 15 14 15 13

Z

M123 8

L123 6

L122 6

L120 6

L120 8

L120 10

L122 10

L123 10

L123 8

Z

M97 6

C98 6 98 5 98 4

L98 4

L97 4

L95 4

L95 5

C94 7 95 8 96 8

L97 8

L97 6

Z

M118 7

C118 6 117 5 116 5

L115 5

L115 6

L115 8

L117 8

L118 8

L118 7

Z

M14 4

L14 2

L13 2

L11 2

L11 4

L11 5

L13 5

L14 5

L14 4

Z

"/>

<path fill="#dc7a7b" stroke="none" d="
M0 9

L0 0

L46 0

L92 0

L92 2

L91 3

L93 2

C94 1 96 0 99 0

L103 0

L103 2

L103 4

L104 4

L105 4

L106 2

L106 0

L128 0

L150 0

L150 9

L150 18

L75 18

L0 18

L0 9

Z

M15 13

L15 12

L13 12

L10 12

L10 13

C10 13 11 14 11 15

L12 16

L14 15

C14 14 15 13 15 13

Z

M107 15

L107 14

L106 14

L104 14

L104 15

L104 16

L106 16

L107 16

L107 15

Z

M123 8

L123 6

L122 6

L120 6

L120 8

L120 10

L122 10

L123 10

L123 8

Z

M37 6

L37 4

L36 5

L35 6

L35 7

C36 8 36 8 37 8

L38 8

L37 6

Z

M97 6

C98 6 98 5 98 4

L98 4

L97 4

L95 4

L95 5

C94 7 95 8 96 8

L97 8

L97 6

Z

M118 7

C118 6 117 5 116 5

L115 5

L115 6

L115 8

L117 8

L118 8

L118 7

Z

M15 4

L14 3

L13 3

L11 3

L10 4

L10 5

L13 5

L15 5

L15 4

Z

"/>

<path fill="#e27a78" stroke="none" d="
M0 9

L0 0

L46 0

L92 0

L91 1

L90 3

L91 3

L92 4

L92 3

L93 2

L95 3

L96 3

L95 2

L95 0

L99 0

L103 0

L103 2

L103 4

L104 4

L105 4

L106 2

L106 0

L109 0

L112 0

L112 1

L112 2

L113 1

C114 1 122 0 132 0

L150 0

L150 9

L150 18

L75 18

L0 18

L0 9

Z

M15 13

C15 12 13 12 12 12

L10 11

L10 12

C10 13 11 14 11 15

L12 16

L14 15

L15 13

L15 13

Z

M107 15

L107 14

L106 14

L104 13

L104 15

L104 16

L106 16

L107 16

L107 15

Z

M126 14

L126 12

L125 12

L123 12

L123 14

L123 16

L125 16

L126 16

L126 14

Z

M44 9

C44 8 43 7 42 7

L41 7

L41 8

L41 10

L43 10

L44 10

L44 9

Z

M123 8

L123 6

L122 6

L120 6

L120 8

L120 10

L122 10

L123 10

L123 8

Z

M38 6

C38 5 37 4 37 3

L36 3

L35 4

C35 5 35 7 35 8

L36 9

L37 9

C37 8 37 7 38 6

Z

M97 6

C98 6 98 5 98 4

L98 4

L97 4

L95 4

L95 5

C94 7 95 8 96 8

L97 8

L97 6

Z

M118 8

C118 7 118 6 117 6

L117 4

L116 5

C115 5 115 6 115 7

L115 8

L117 8

L118 8

L118 8

Z

M15 4

L14 3

L13 3

L11 3

L10 4

L10 5

L13 5

L15 5

L15 4

Z

"/>

<path fill="#d77e80" stroke="none" d="
M0 16

C0 15 0 12 1 9

L2 5

L1 5

L0 5

L0 3

L0 0

L46 0

L92 0

L91 1

L90 3

L91 3

L91 4

L93 3

L94 2

L95 3

C95 4 95 5 95 6

L95 7

L96 8

L97 8

L97 6

C98 5 97 4 97 3

C96 2 95 1 95 1

L95 0

L98 0

L102 0

L102 2

L103 4

L104 4

L105 4

L106 2

L106 0

L109 0

L112 0

L112 1

L112 2

L113 1

C114 1 122 0 132 0

L150 0

L150 9

L150 18

L75 18

L0 18

L0 16

Z

M15 13

C15 12 13 12 12 12

L10 11

L10 12

C10 13 11 14 11 15

L12 16

L14 15

L15 13

L15 13

Z

M107 15

L107 14

L106 14

L104 13

L104 15

L104 16

L106 16

L107 16

L107 15

Z

M126 14

L126 12

L125 12

L123 12

L123 14

L123 16

L125 16

L126 16

L126 14

Z

M118 13

L118 12

L117 13

L115 13

L115 14

L115 14

L117 14

L118 14

L118 13

Z

M86 9

L86 8

L85 8

L83 8

L83 9

C83 10 83 11 84 11

L84 12

L85 11

C86 11 86 10 86 9

Z

M123 8

L123 6

L122 6

L120 6

L120 8

C121 9 121 11 121 11

L121 11

L122 11

C123 10 123 9 123 8

Z

M44 9

C44 8 43 7 42 7

L41 7

L41 8

L41 10

L43 10

L44 10

L44 9

Z

M38 6

C38 5 37 4 37 3

L36 3

L35 4

C35 5 35 7 35 8

L36 9

L37 9

C37 8 37 7 38 6

Z

M118 8

C118 7 118 6 117 6

L117 4

L116 5

C115 5 115 6 115 7

L115 8

L117 8

L118 8

L118 8

Z

M15 4

L14 3

L13 3

L11 3

L10 4

L10 5

L13 5

L15 5

L15 4

Z

"/>

<path fill="#de8082" stroke="none" d="
M0 16

C0 15 0 12 1 9

L2 5

L1 5

L0 5

L0 3

L0 0

L36 0

L72 0

L72 2

L71 3

L72 2

C73 2 78 1 83 0

L93 0

L91 1

L90 3

L91 3

L91 4

L93 3

L94 2

L95 3

C95 4 95 5 95 6

L95 7

L96 8

L97 8

L97 6

C98 5 97 4 97 3

C96 2 95 1 95 1

L95 0

L98 0

L102 0

L102 2

L103 4

L104 4

L105 4

L106 2

L106 0

L109 0

L112 0

L112 1

L112 2

L113 2

C113 1 122 1 132 0

L150 0

L150 9

L150 18

L75 18

L0 18

L0 16

Z

M15 13

C15 12 13 12 12 12

L10 11

L10 12

C10 13 11 14 11 15

L12 16

L14 15

L15 13

L15 13

Z

M36 15

L36 13

L36 13

L35 13

L35 15

L34 16

L36 16

L37 16

L36 15

Z

M107 15

L107 14

L106 14

L104 13

L104 15

L104 16

L106 16

L107 16

L107 15

Z

M126 14

L126 12

L125 12

L123 12

L123 14

L123 16

L125 16

L126 16

L126 14

Z

M117 12

C117 11 117 9 116 9

L116 9

L115 10

C115 11 114 12 115 13

L115 14

L117 14

L118 14

L117 12

Z

M86 9

L86 8

L85 8

L83 8

L83 9

C83 10 83 11 84 11

L84 12

L85 11

C86 11 86 10 86 9

Z

M123 8

L123 6

L122 6

L120 6

L120 8

C121 9 121 11 121 11

L121 11

L122 11

C123 10 123 9 123 8

Z

M20 8

C20 7 19 6 18 6

L17 6

L17 8

L17 10

L19 10

L20 10

L20 8

Z

M44 9

C44 8 43 7 42 7

L41 7

L41 8

L41 10

L43 10

L44 10

L44 9

Z

M38 6

C38 5 37 4 37 3

L36 3

L35 4

C35 5 35 7 35 8

L36 9

L37 9

C37 8 37 7 38 6

Z

M118 6

C117 6 117 4 117 4

L117 3

L116 4

C115 4 115 5 115 6

L115 8

L117 8

L118 8

L118 6

Z

M15 4

L14 3

L13 3

L11 3

L10 4

L10 5

L13 5

L15 5

L15 4

Z

"/>

<path fill="#d98485" stroke="none" d="
M0 15

L0 12

L2 12

L3 13

L3 12

C3 12 3 11 2 10

L1 10

L1 7

L2 5

L1 5

L0 5

L0 3

L0 0

L14 0

C21 0 31 0 35 1

L43 1

L43 3

L44 5

L45 4

L47 3

L45 2

L44 2

L44 1

L44 0

L58 0

L72 0

L72 2

L71 3

L72 2

C73 2 78 1 83 0

L92 0

L91 1

C91 2 91 5 91 9

L90 16

L93 16

L96 16

L96 15

C96 14 97 13 98 12

L99 11

L99 10

C98 10 97 9 97 9

L96 9

L95 12

L93 15

L93 14

C92 14 92 11 92 9

L93 4

L94 3

L95 3

L95 5

C95 6 95 7 95 8

L96 8

L97 6

L99 5

L97 3

C96 2 95 1 95 1

L95 0

L98 0

L102 0

L102 3

L103 5

L105 4

C105 3 106 2 106 1

L106 0

L109 0

L112 0

L112 2

L111 3

L112 3

C112 3 113 3 114 2

C114 1 116 1 119 1

L123 1

L123 3

L123 4

L124 4

L125 4

L125 2

L124 0

L137 0

L150 0

L150 9

L150 18

L75 18

L0 18

L0 15

Z

M15 13

C15 12 13 12 12 12

L10 11

L10 12

C10 13 11 14 11 15

L12 16

L14 15

L15 13

L15 13

Z

M36 15

L36 13

L36 13

L35 13

L35 15

L34 16

L36 16

L37 16

L36 15

Z

M107 15

L107 14

L106 14

L104 13

L104 15

L104 16

L106 16

L107 16

L107 15

Z

M126 14

L126 12

L125 12

L123 12

L123 14

L123 16

L125 16

L126 16

L126 14

Z

M117 12

C117 11 117 9 116 9

L116 9

L115 10

C115 11 114 12 115 13

L115 14

L117 14

L118 14

L117 12

Z

M86 9

L86 7

L85 7

C84 7 83 9 83 11

L84 12

L85 12

C86 11 86 10 86 9

Z

M123 8

L123 6

L122 6

L120 6

L120 8

C121 9 121 11 121 11

L121 11

L122 11

C123 10 123 9 123 8

Z

M20 8

C20 7 19 6 18 6

L17 6

L17 8

L17 10

L19 10

L20 10

L20 8

Z

M44 9

C44 8 43 7 42 7

L41 7

L41 8

L41 10

L43 10

L44 10

L44 9

Z

M38 6

C38 5 37 4 37 3

L36 3

L35 4

C35 5 35 7 35 8

L36 9

L37 9

C37 8 37 7 38 6

Z

M118 6

C117 6 117 4 117 4

L117 3

L116 4

C115 4 115 5 115 6

L115 8

L117 8

L118 8

L118 6

Z

M15 4

L14 3

L13 3

L11 3

L10 4

L10 5

L13 5

L15 5

L15 4

Z

"/>

<path fill="#e38486" stroke="none" d="
M0 15

L0 12

L2 12

L3 13

L3 12

C3 12 3 11 2 10

L1 10

L1 7

L2 5

L1 5

L0 5

L0 3

L0 0

L16 0

L32 0

L32 2

L32 3

L33 2

C34 2 36 1 39 1

L43 1

L43 3

L44 5

L45 5

L46 4

L46 2

L45 0

L58 0

L71 0

L71 2

C70 3 70 4 71 4

L71 5

L73 3

C74 1 76 1 83 0

L92 0

L91 1

C91 2 91 5 91 9

L90 16

L93 16

L96 16

L96 15

C96 14 97 13 98 12

L99 11

L99 10

C98 10 97 9 97 9

L96 9

L95 12

L93 15

L93 14

C92 14 92 11 92 9

L93 4

L94 3

L95 3

L95 5

C95 6 95 7 95 8

L96 8

L97 6

L99 5

L97 3

C96 2 95 1 95 1

L95 0

L99 0

L102 0

L102 2

C102 3 101 4 100 5

L99 7

L100 9

L102 10

L102 8

C102 7 103 5 104 4

C105 4 106 2 106 1

L106 0

L109 0

L112 0

L112 2

L111 3

L112 3

C112 3 113 3 114 2

C114 1 116 1 119 1

L123 1

L123 3

L123 4

L124 4

L125 4

L125 2

L124 0

L127 0

L131 0

L130 3

L130 6

L132 3

C133 1 135 1 142 0

L150 0

L150 9

L150 18

L75 18

L0 18

L0 15

Z

M15 13

C15 12 13 12 12 12

L10 11

L10 12

C10 13 11 14 11 15

L12 16

L14 15

L15 13

L15 13

Z

M37 14

C37 12 37 9 37 8

L37 4

L36 4

L36 4

L35 8

C35 11 35 14 35 14

L34 16

L36 16

L37 16

L37 14

Z

M86 11

L86 7

L85 7

L84 8

L84 11

L84 15

L83 15

L81 14

L82 15

C82 16 83 16 84 16

L86 16

L86 11

Z

M107 15

L107 14

L106 14

L104 13

L104 15

L104 16

L106 16

L107 16

L107 15

Z

M126 14

L126 12

L125 12

L123 12

L123 14

L123 16

L125 16

L126 16

L126 14

Z

M117 12

C117 11 117 9 116 9

L116 9

L115 10

C115 11 114 12 115 13

L115 14

L117 14

L118 14

L117 12

Z

M136 11

L135 10

L134 11

L133 11

L134 13

L135 14

L136 13

L137 13

L136 11

Z

M44 9

L43 7

L42 7

L41 7

L41 8

L41 10

L42 10

C43 11 44 11 44 10

L44 10

L44 9

Z

M123 8

L123 6

L122 6

L120 6

L120 8

C121 9 121 11 121 11

L121 11

L122 11

C123 10 123 9 123 8

Z

M20 8

C20 7 19 6 18 6

L17 6

L17 8

L17 10

L19 10

L20 10

L20 8

Z

M118 6

C117 6 117 4 117 4

L117 3

L116 4

C115 4 115 5 115 6

L115 8

L117 8

L118 8

L118 6

Z

M15 4

L14 3

L13 3

L11 3

L10 4

L10 5

L13 5

L15 5

L15 4

Z

"/>

<path fill="#dd8a87" stroke="none" d="
M0 15

L0 12

L2 12

L3 13

L3 12

C3 12 2 11 2 10

L1 8

L2 7

C2 6 3 5 3 5

L3 4

L2 4

L0 4

L0 2

L0 0

L16 0

L32 0

L32 2

L32 3

L33 2

C34 2 36 1 39 1

L43 1

L43 3

L44 5

L45 5

L46 4

L46 2

L45 0

L58 0

L71 0

L71 2

C70 3 70 4 71 4

L71 5

L73 3

C74 2 76 1 83 0

L91 0

L91 8

L90 16

L94 16

L97 16

L97 14

L97 12

L98 12

L99 11

L99 10

C98 10 97 9 97 9

L96 9

L95 12

L93 15

L93 14

C92 14 92 11 92 9

L93 4

L94 3

L95 3

L95 5

C95 6 95 7 95 8

L96 8

L98 6

C99 4 101 3 101 3

L102 3

L100 5

L99 7

L100 9

L102 10

L102 8

C102 7 103 5 104 4

C105 4 106 2 106 1

L106 0

L109 0

L112 0

L112 2

L111 3

L112 3

C112 3 113 3 114 2

C114 1 116 1 119 1

L123 1

L123 3

L122 5

L124 5

L126 4

L125 2

L125 0

L128 0

L131 0

L130 3

L130 6

L132 3

C133 1 135 1 142 0

L150 0

L150 9

L150 18

L75 18

L0 18

L0 15

Z

M15 13

C15 12 13 12 12 12

L10 11

L10 12

C10 13 11 14 11 15

L12 16

L14 15

L15 13

L15 13

Z

M37 13

C37 12 37 10 37 9

L37 8

L39 8

C39 8 41 9 42 10

L43 11

L44 10

C44 9 44 8 44 7

L43 6

L40 7

L37 7

L37 6

L38 4

L37 4

L36 4

L35 8

C35 11 35 14 35 14

L34 16

L36 16

L37 16

L37 13

Z

M86 11

L86 7

L85 7

L84 8

L84 11

L84 15

L83 15

L82 15

L82 13

L82 11

L79 10

C78 10 76 10 76 11

L75 12

L77 12

C79 12 80 13 81 14

C82 15 83 16 84 16

L86 16

L86 11

Z

M107 15

L107 14

L106 14

L104 13

L104 15

L103 16

L105 16

L107 16

L107 15

Z

M126 14

L126 12

L125 12

C124 12 123 12 123 13

L122 14

L123 14

L124 14

L124 15

L123 16

L124 16

L126 16

L126 14

Z

M117 12

L117 10

L120 10

L123 11

L123 8

L123 6

L120 6

L117 6

L117 4

L117 3

L116 4

C115 4 115 5 115 7

C115 8 115 10 115 11

C115 11 115 12 115 13

L115 14

L117 14

L118 14

L117 12

Z

M136 11

L135 10

L134 11

L133 11

L134 13

L135 14

L136 13

L137 13

L136 11

Z

M20 8

C20 7 19 6 18 6

L17 6

L17 8

L17 10

L19 10

L20 10

L20 8

Z

M15 4

L14 3

L13 3

L11 3

L10 4

L10 5

L13 5

L15 5

L15 4

Z

M96 2

L95 0

L98 0

L101 0

L101 1

C101 2 99 4 98 4

C98 4 97 3 96 2

Z

"/>

<path fill="#d88c8c" stroke="none" d="
M0 15

L0 12

L2 12

L3 13

L3 12

C3 12 2 11 2 10

L1 8

L2 7

C2 6 3 5 3 5

L3 4

L2 4

L0 4

L0 2

L0 0

L16 0

L32 0

L32 2

L32 3

L33 2

C34 2 36 1 39 1

L43 1

L43 3

L44 5

L45 5

L46 4

L46 2

L45 0

L58 0

L71 0

L71 2

C70 3 70 4 71 4

L71 5

L73 3

C74 2 76 1 83 0

L91 0

L90 8

L90 16

L93 16

L97 16

L97 14

L97 12

L98 12

L99 11

L99 10

C98 10 97 9 97 9

L96 9

L94 12

L93 16

L93 15

C93 15 93 12 93 9

L93 3

L94 3

L95 3

L95 5

C95 6 95 7 95 8

L96 8

L98 6

C99 4 101 3 101 3

L102 3

L101 5

L99 7

L101 10

C103 12 104 14 104 15

L103 16

L105 16

L107 16

L107 15

C107 15 106 13 105 12

C101 9 101 6 104 4

C105 4 106 2 106 1

L106 0

L109 0

L112 0

L112 2

L111 3

L112 3

C112 3 113 3 114 2

C114 1 116 1 119 1

L123 2

L122 3

L122 5

L124 5

L126 4

L125 2

L125 0

L128 0

L131 0

L130 3

L130 6

L132 3

C133 1 135 1 142 0

L150 0

L150 9

L150 18

L75 18

L0 18

L0 15

Z

M15 13

C15 12 13 12 12 12

L10 11

L10 12

C10 13 11 14 11 15

L12 16

L14 15

L15 13

L15 13

Z

M37 13

C37 12 37 10 37 9

L37 8

L39 8

C39 8 41 9 42 10

L43 11

L44 10

C44 9 44 8 44 7

L43 6

L40 7

L37 7

L37 6

L38 4

L37 4

L36 4

L35 8

C35 11 35 14 35 14

L34 16

L36 16

L37 16

L37 13

Z

M86 11

L86 7

L85 7

L84 8

L84 11

L84 15

L84 15

L83 15

L82 13

L81 10

L79 10

C77 10 76 10 76 11

L75 12

L78 12

L80 12

L81 14

L81 16

L83 16

L86 16

L86 11

Z

M126 14

L126 12

L125 12

C124 12 123 12 123 13

L122 14

L123 14

L124 14

L124 15

L123 16

L124 16

L126 16

L126 14

Z

M117 12

L117 10

L120 10

L123 11

L123 8

L123 6

L120 6

L117 6

L117 4

L117 3

L116 4

C115 4 115 5 115 7

C115 8 115 10 115 11

C115 11 115 12 115 13

L115 14

L117 14

L118 14

L117 12

Z

M136 11

L135 10

L134 11

L133 11

L134 13

L135 14

L136 13

L137 13

L136 11

Z

M142 11

L142 10

L141 10

C140 10 139 11 139 12

L139 13

L140 13

C141 13 142 12 142 11

Z

M62 7

C61 6 61 5 60 5

L60 5

L60 9

L60 13

L61 11

C63 9 63 8 62 7

Z

M20 9

L20 7

L18 6

L17 6

L17 9

L17 11

L18 11

L20 10

L20 9

Z

M67 9

C67 7 66 6 65 5

L63 3

L64 7

L65 11

L66 11

L67 11

L67 9

Z

M142 6

C142 6 142 5 141 4

L140 4

L139 4

L139 5

L139 6

C140 7 141 7 141 7

L142 7

L142 6

Z

M15 4

L14 3

L13 3

L11 3

L10 4

L10 5

L13 5

L15 5

L15 4

Z

M96 2

L95 0

L98 0

L101 0

L101 1

C101 2 99 4 98 4

C98 4 97 3 96 2

Z

"/>

<path fill="#df8d8c" stroke="none" d="
M0 15

L0 12

L2 12

L3 13

L3 12

C3 12 2 11 2 10

L1 8

L2 7

C2 6 3 5 3 5

L3 4

L2 4

L0 4

L0 2

L0 0

L16 0

L32 0

L32 2

L32 3

L33 2

C34 2 36 1 39 1

L43 1

L43 3

L44 5

L45 5

L46 4

L46 2

L45 0

L58 0

L71 0

L70 8

L70 16

L72 16

C74 16 75 16 75 15

L76 14

L74 14

L73 15

L73 9

C73 5 73 2 74 2

C74 2 78 1 83 0

L91 0

L90 8

L90 16

L93 16

L97 16

L97 14

L97 12

L98 12

L99 11

L99 10

C98 10 97 9 97 9

L96 9

L94 12

L93 16

L93 15

C93 15 93 12 93 9

L93 3

L94 3

L95 3

L95 5

C95 6 95 7 95 8

L96 8

L98 6

C99 4 101 3 101 3

L102 3

L101 5

L99 7

L100 8

C100 9 101 10 102 12

L104 14

L104 15

L103 16

L105 16

L107 16

L107 15

C107 15 106 13 105 12

C101 9 101 6 104 4

C105 4 106 2 106 1

L106 0

L109 0

L112 0

L112 2

L111 3

L112 3

C112 3 113 3 114 2

C114 1 116 1 119 1

L123 2

L122 3

L122 5

L124 5

L126 4

L125 2

L125 0

L128 0

L131 0

L130 3

L130 6

L132 3

C133 1 135 1 142 0

L150 0

L150 9

L150 18

L75 18

L0 18

L0 15

Z

M15 13

C15 12 13 12 12 12

L10 11

L10 12

C10 13 11 14 11 15

L12 16

L14 15

L15 13

L15 13

Z

M37 13

C37 12 37 10 37 9

L37 8

L39 8

C39 8 41 9 42 10

L43 11

L44 10

C44 9 44 8 44 7

L43 6

L40 7

L37 7

L37 6

L38 4

L37 4

L36 4

L35 8

C35 11 35 14 35 14

L34 16

L36 16

L37 16

L37 13

Z

M86 12

C86 9 86 7 85 7

L85 7

L84 7

L83 8

L84 12

L84 15

L84 15

L83 15

L82 13

L81 10

L79 10

C77 10 76 10 76 11

L75 12

L78 12

L80 12

L81 14

L81 16

L84 16

L87 16

L86 12

Z

M126 14

L126 12

L125 12

C124 12 123 12 123 13

L122 14

L123 14

L124 14

L124 15

L123 16

L124 16

L126 16

L126 14

Z

M133 16

C133 15 132 15 132 14

L130 13

L130 14

L130 16

L132 16

L133 16

L133 16

Z

M117 12

L117 10

L120 10

L123 11

L123 8

L123 6

L120 6

L117 6

L117 4

L117 3

L116 4

C115 4 115 5 115 7

C115 8 115 10 115 11

C115 11 115 12 115 13

L115 14

L117 14

L118 14

L117 12

Z

M136 9

C136 6 136 4 136 3

L136 3

L135 4

C133 5 133 11 134 13

L135 14

L136 14

C136 13 136 11 136 9

Z

M142 11

L142 10

L141 10

C140 10 139 11 139 12

L139 13

L140 13

C141 13 142 12 142 11

Z

M62 7

C61 6 61 5 60 5

L60 5

L60 9

L60 13

L61 11

C63 9 63 8 62 7

Z

M20 9

L20 7

L18 6

L17 6

L17 9

L17 11

L18 11

L20 10

L20 9

Z

M67 9

C67 7 66 6 65 5

L63 3

L64 7

L65 11

L66 11

L67 11

L67 9

Z

M142 6

C142 6 142 5 141 4

L140 4

L139 4

L139 5

L139 6

C140 7 141 7 141 7

L142 7

L142 6

Z

M15 4

L14 3

L13 3

L11 3

L10 4

L10 5

L13 5

L15 5

L15 4

Z

M96 2

L95 0

L98 0

L101 0

L101 1

C101 2 99 4 98 4

C98 4 97 3 96 2

Z

"/>

<path fill="#de9091" stroke="none" d="
M0 15

L0 12

L2 12

L3 13

L3 12

C3 12 2 11 2 10

L1 8

L2 7

C2 6 3 5 3 5

L3 4

L2 4

L0 4

L0 2

L0 0

L16 0

L32 0

L32 2

L31 4

L32 4

L33 4

L33 3

L34 1

L39 1

L43 1

L43 2

L42 4

L44 4

L45 5

L45 4

C46 4 46 3 45 2

L45 0

L58 0

L71 0

L70 8

L70 16

L72 16

C74 16 75 16 75 15

L76 14

L74 14

L73 15

L73 9

C73 5 73 2 74 2

C74 2 78 1 83 0

L91 0

L90 8

L90 16

L93 16

L97 16

L97 14

L97 12

L99 14

C101 15 103 16 104 16

L107 16

L107 15

C107 15 106 13 105 12

C101 9 101 7 104 5

C105 4 106 2 106 1

L106 0

L109 0

L112 0

L111 2

L111 5

L113 3

C114 2 116 1 119 2

L123 2

L123 4

L122 5

L124 5

L126 4

L125 2

L125 0

L128 0

L131 0

L130 3

L130 6

L132 3

C133 1 135 1 142 0

L150 0

L150 9

L150 18

L75 18

L0 18

L0 15

Z

M15 13

C15 12 13 12 12 12

L10 11

L10 12

C10 13 11 14 11 15

L12 16

L14 15

L15 13

L15 13

Z

M37 13

C37 12 37 10 37 9

L37 8

L39 8

L41 8

L41 9

L40 11

L42 11

L44 11

L44 9

L44 7

L40 7

L37 7

L37 6

L38 4

L37 4

L36 4

L35 8

C35 11 35 14 35 14

L34 16

L36 16

L37 16

L37 13

Z

M54 14

C53 13 51 12 51 12

L49 12

L50 14

C51 15 52 16 53 16

L55 16

L54 14

Z

M86 12

C86 9 86 7 85 7

L85 7

L84 7

L83 8

L84 12

L84 15

L84 15

L83 15

L82 13

L81 10

L79 10

C77 10 76 10 76 11

L75 12

L78 12

L80 12

L81 14

L81 16

L84 16

L87 16

L86 12

Z

M126 14

L126 12

L125 12

C124 12 123 12 123 13

L122 14

L123 14

L124 14

L124 15

L123 16

L124 16

L126 16

L126 14

Z

M133 16

C133 15 132 15 132 14

L130 13

L130 14

L130 16

L132 16

L133 16

L133 16

Z

M143 15

L144 13

L142 14

C141 14 140 15 139 15

L139 16

L140 16

C141 16 142 15 143 15

Z

M117 12

L117 10

L120 10

L123 11

L123 8

L123 6

L120 6

L117 6

L117 4

L117 3

L116 4

C115 4 115 5 115 7

C115 8 115 10 115 11

C115 11 115 12 115 13

L115 14

L117 14

L118 14

L117 12

Z

M136 9

C136 6 136 4 136 3

L136 3

L135 4

C133 5 133 11 134 13

L135 14

L136 14

C136 13 136 11 136 9

Z

M142 11

L142 10

L141 10

C140 10 139 11 139 12

L139 13

L140 13

C141 13 142 12 142 11

Z

M62 7

C61 6 61 5 60 5

L60 5

L60 9

L60 13

L61 11

C63 9 63 8 62 7

Z

M67 8

L67 5

L65 4

L63 3

L63 4

C64 5 64 7 64 9

L64 12

L65 12

C66 12 67 10 67 8

Z

M20 9

L20 7

L18 6

L17 6

L17 9

L17 11

L18 11

L20 10

L20 9

Z

M78 7

C77 7 77 5 77 5

L77 4

L76 5

C75 5 75 6 75 7

L75 9

L77 9

L78 9

L78 7

Z

M55 6

L55 5

L54 5

L54 5

L53 6

L53 7

L54 7

L55 6

L55 6

Z

M142 6

C142 6 142 5 141 4

L140 4

L139 4

L139 5

L139 6

C140 7 141 7 141 7

L142 7

L142 6

Z

M15 4

L14 3

L13 3

L11 3

L10 4

L10 5

L13 5

L15 5

L15 4

Z

M93 15

C93 15 93 12 93 9

L93 3

L94 3

L95 3

L95 5

C95 6 95 7 95 8

L96 8

L98 6

C99 4 101 3 101 3

L102 3

L101 5

L99 7

L100 8

C100 9 101 11 102 12

L104 14

L104 15

L103 15

L100 12

C99 10 97 9 97 9

C96 9 95 10 94 12

L93 16

L93 15

Z

M96 2

L95 0

L98 0

L101 0

L100 2

C99 3 98 4 98 4

C98 4 97 3 96 2

Z

M51 14

L51 13

L52 14

C53 14 53 14 53 15

L53 15

L52 15

L51 15

L51 14

Z

"/>

<path fill="#ea8b8b" stroke="none" d="
M0 15

L0 12

L2 12

L3 13

L3 12

C3 12 2 11 2 10

L1 8

L2 7

C2 6 3 5 3 5

L3 4

L2 4

L0 4

L0 2

L0 0

L16 0

L32 0

L32 2

L31 4

L32 4

L33 4

L33 3

L33 2

L38 2

L43 2

L43 3

L42 4

L43 4

L45 5

L45 4

C46 4 46 2 45 2

L45 0

L50 0

L55 0

L55 1

C54 1 53 2 52 2

C49 4 48 8 49 12

L51 16

L53 16

L56 16

L53 13

C49 10 49 8 52 5

C54 3 55 2 57 2

C64 2 66 9 62 14

L60 16

L62 16

C63 16 65 15 65 13

C68 8 67 5 64 3

L61 0

L66 0

L71 0

L70 8

L70 16

L73 16

L76 16

L76 14

L77 12

L79 12

L80 12

L81 14

L81 16

L84 16

L87 16

L87 11

L87 6

L85 7

L83 8

L84 12

L84 15

L84 15

L83 15

L82 13

L81 10

L79 10

L76 10

L75 13

L74 15

L73 15

C72 14 72 4 73 2

C74 2 76 1 78 2

L83 2

L83 1

L83 0

L87 0

L91 0

L90 8

L90 16

L93 16

L97 16

L97 14

L97 12

L99 14

C100 15 101 16 104 16

L107 16

L107 15

C107 15 106 13 105 11

C101 7 101 7 104 5

C105 4 106 2 106 1

L106 0

L109 0

L112 0

L111 2

L111 5

L112 3

C113 3 116 2 118 2

L123 2

L123 4

L122 5

L124 5

L126 4

L125 2

L125 0

L128 0

L130 0

L130 3

L129 5

L130 5

L131 5

L132 4

L132 2

L136 2

C141 2 144 4 144 9

L145 13

L144 12

L143 12

L141 14

L139 16

L141 16

C143 16 147 12 147 9

C147 6 144 2 142 2

L141 2

L141 1

L141 0

L146 0

L150 0

L150 9

L150 18

L75 18

L0 18

L0 15

Z

M15 13

L15 12

L12 12

C11 11 10 11 9 11

L9 12

L10 14

L12 16

L14 15

C14 14 15 13 15 13

Z

M37 13

C37 12 37 10 37 10

L37 9

L39 10

C40 11 42 11 43 11

L44 11

L44 9

L44 7

L40 7

L37 7

L37 6

L37 5

L36 4

L36 4

L35 7

C35 8 35 11 35 12

L35 15

L34 15

L32 14

L32 15

L32 16

L35 16

L37 16

L37 13

Z

M114 15

C113 14 112 14 112 14

L111 14

L111 15

L111 16

L113 16

L114 16

L114 15

Z

M126 14

L126 12

L125 12

C124 12 123 12 123 13

L122 14

L123 14

L124 14

L124 15

L123 16

L124 16

L126 16

L126 14

Z

M132 14

L130 13

L129 13

L129 14

L129 15

C130 16 131 16 132 16

L133 16

L132 14

Z

M117 12

L117 10

L120 10

L123 11

L123 8

L123 6

L120 6

L117 6

L117 4

L117 3

L116 4

C115 4 115 5 115 7

C115 8 115 10 115 11

C115 11 115 12 115 13

L115 14

L117 14

L118 14

L117 12

Z

M136 9

C136 6 136 4 136 3

L136 3

L135 4

C133 5 133 11 134 13

L135 14

L136 14

C136 13 136 11 136 9

Z

M62 11

C62 9 62 8 62 7

L61 5

L60 8

C60 11 58 13 55 11

L54 10

L53 10

L53 11

L53 12

C54 13 56 13 58 13

L61 13

L62 11

Z

M142 9

L142 5

L141 4

L140 4

L140 9

L140 13

L141 13

L142 12

L142 9

Z

M20 9

L20 7

L18 6

L17 6

L17 9

L17 11

L18 11

L20 10

L20 9

Z

M78 6

L77 4

L76 4

L76 4

L75 6

L75 9

L76 9

L78 9

L78 6

Z

M82 7

C82 6 82 5 81 5

L80 4

L80 6

L80 8

L81 8

L82 8

L82 7

Z

M56 5

L56 4

L55 4

C54 4 53 5 53 6

L53 7

L54 7

C55 7 56 6 56 5

Z

M15 4

L15 3

L13 2

C13 2 11 2 10 3

L9 5

L12 5

L15 5

L15 4

Z

M93 15

C93 15 93 12 93 9

L93 3

L94 3

L95 3

L95 5

C95 6 95 7 95 8

L96 8

L98 6

C99 4 101 3 101 3

L102 3

L100 5

L99 7

L101 11

L104 14

L103 15

L103 15

L100 12

C99 10 97 9 97 9

C96 9 95 10 94 12

L93 16

L93 15

Z

M96 2

L95 0

L98 0

L101 0

L100 2

C99 3 98 4 98 4

C98 4 97 3 96 2

Z

"/>

<path fill="#e49093" stroke="none" d="
M0 15

L0 12

L1 12

L3 13

L3 8

L3 4

L1 4

L0 4

L0 2

L0 0

L16 0

L32 0

L32 2

L31 4

L32 4

L33 4

L33 3

L33 2

L38 2

L43 2

L43 3

L42 4

L43 4

L45 5

L45 4

C46 4 46 2 45 2

L45 0

L49 0

L54 0

L54 1

C54 1 53 2 52 3

C49 4 48 8 49 12

L51 16

L53 16

L56 16

L53 13

C49 10 49 8 52 5

C54 3 55 2 57 2

C64 2 66 9 62 14

L60 16

L62 16

C63 16 65 15 65 13

C68 8 67 5 64 3

L61 0

L66 0

L71 0

L70 8

L70 16

L73 16

L76 16

L76 14

L77 12

L79 12

L80 12

L81 14

L81 16

L84 16

L87 16

L87 11

L87 6

L85 7

L83 8

L84 12

L84 15

L84 15

L83 15

L82 13

L81 10

L79 10

L76 10

L75 13

L74 15

L73 15

C72 14 72 4 73 2

C74 2 76 1 78 2

L83 2

L83 1

L83 0

L87 0

L91 0

L90 8

L90 16

L93 16

L97 16

L97 14

L97 12

L99 14

C100 15 101 16 104 16

L107 16

L107 15

C107 15 106 13 105 11

C101 7 101 7 104 5

C105 4 106 2 106 1

L106 0

L109 0

L112 0

L111 2

L111 5

L112 3

C113 3 116 2 118 2

L123 2

L123 4

L122 5

L124 5

L126 4

L125 2

L125 0

L128 0

L130 0

L130 3

L129 5

L130 5

L131 5

L132 4

L132 2

L136 2

C141 2 144 4 144 9

L145 13

L144 12

L143 12

L141 14

L139 16

L141 16

C143 16 147 12 147 9

C147 6 144 2 142 2

L141 2

L141 1

L141 0

L146 0

L150 0

L150 9

L150 18

L75 18

L0 18

L0 15

Z

M20 8

L20 7

L18 6

L17 6

L17 8

C17 11 15 12 12 11

L9 11

L9 12

C9 12 10 13 11 14

L12 16

L16 13

C18 11 20 9 20 8

Z

M37 13

C37 12 37 10 37 10

L37 9

L39 10

C40 11 42 11 43 11

L44 11

L44 9

L44 7

L40 7

L37 7

L37 6

L37 5

L36 4

L36 4

L35 7

C35 8 35 11 35 12

L35 15

L34 15

L32 14

L32 15

L32 16

L35 16

L37 16

L37 13

Z

M114 15

C113 14 112 14 112 14

L111 14

L111 15

L111 16

L113 16

L114 16

L114 15

Z

M126 14

L126 12

L122 12

L117 12

L117 11

L117 10

L120 10

L123 11

L123 8

L123 6

L120 6

L117 6

L117 4

L117 3

L116 4

C115 4 115 5 115 7

C115 8 115 10 115 11

C115 11 115 12 115 13

L115 14

L120 14

L124 14

L124 15

L123 16

L124 16

L126 16

L126 14

Z

M132 14

L130 13

L129 13

L129 14

L129 15

C130 16 131 16 132 16

L133 16

L132 14

Z

M136 9

C136 6 136 4 136 3

L136 3

L135 4

C133 5 133 11 134 13

L135 14

L136 14

C136 13 136 11 136 9

Z

M62 11

C62 9 62 8 62 7

L61 5

L60 8

C60 11 58 13 55 11

L54 10

L53 10

L53 11

L53 12

C54 13 56 13 58 13

L61 13

L62 11

Z

M142 9

L142 5

L141 4

L140 4

L140 9

L140 13

L141 13

L142 12

L142 9

Z

M78 6

L77 4

L76 4

L76 4

L75 6

L75 9

L76 9

L78 9

L78 6

Z

M82 7

C82 6 82 5 81 5

L80 4

L80 6

L80 8

L81 8

L82 8

L82 7

Z

M56 5

L56 4

L55 4

C54 4 53 5 53 6

L53 7

L54 7

C55 7 56 6 56 5

Z

M15 4

L15 3

L13 2

C13 2 11 2 10 3

L9 5

L12 5

L15 5

L15 4

Z

M93 15

C93 15 93 12 93 9

L93 3

L94 3

L95 3

L95 5

C95 6 95 7 95 8

L96 8

L98 6

C99 4 101 3 101 3

L102 3

L100 5

L99 7

L101 11

L104 14

L103 15

L103 15

L100 12

C99 10 97 9 97 9

C96 9 95 10 94 12

L93 16

L93 15

Z

M96 2

L95 0

L98 0

L101 0

L100 2

C99 3 98 4 98 4

C98 4 97 3 96 2

Z

"/>

<path fill="#dd9697" stroke="none" d="
M0 15

L0 12

L2 13

L4 13

L4 12

L4 11

L3 11

L2 11

L2 8

L3 4

L1 4

L0 4

L0 2

L0 0

L16 0

L32 0

L32 2

L31 4

L32 4

L33 4

L33 3

L33 2

L38 2

L43 2

L43 3

L42 4

L43 4

L45 5

L45 4

C46 4 46 2 45 2

L45 0

L49 0

L54 0

L54 1

C54 1 53 2 52 3

C49 4 48 8 49 12

L51 16

L53 16

L56 16

L53 13

C49 10 49 8 52 5

C54 3 55 2 57 2

C64 2 66 9 62 14

L60 16

L62 16

C64 16 67 12 67 8

C67 5 65 2 63 2

C63 2 62 2 62 1

L61 0

L66 0

L71 0

L70 8

L70 16

L73 16

L76 16

L76 14

L77 12

L79 12

L80 12

L81 14

L81 16

L84 16

L87 16

L87 11

L87 6

L85 7

L83 8

L84 12

L84 15

L83 15

C83 14 82 13 82 12

L82 10

L80 10

L78 10

L80 9

C82 8 83 6 81 5

L80 4

L80 5

L80 7

L78 7

L77 7

L77 6

L78 4

L77 4

L76 4

L75 8

C75 10 75 13 75 14

L74 15

L73 15

C72 14 72 4 73 2

C74 2 76 1 78 2

L83 2

L83 1

L83 0

L87 0

L91 0

L90 8

L90 16

L93 16

L97 16

L97 14

L97 12

L99 14

C100 15 101 16 104 16

L107 16

L107 15

C107 15 106 13 105 11

C101 7 101 7 104 5

C105 4 106 2 106 1

L106 0

L109 0

L112 0

L111 2

L111 5

L112 3

C113 3 115 2 118 2

L122 2

L121 4

L121 5

L123 5

L126 4

L125 2

L125 0

L128 0

L130 0

L130 3

L129 5

L130 5

L131 5

L132 4

L132 2

L136 2

C141 2 144 4 144 8

C144 11 143 12 141 14

L139 16

L141 16

C143 16 147 12 147 9

C147 6 144 2 142 2

L141 2

L141 1

L141 0

L146 0

L150 0

L150 9

L150 18

L75 18

L0 18

L0 15

Z

M16 13

C18 11 20 9 20 9

C20 7 14 2 13 2

C12 2 11 3 10 4

L9 5

L11 5

C13 5 15 6 16 6

L17 8

L16 10

L15 12

L12 11

L9 11

L9 11

C9 12 11 16 12 16

C12 16 14 15 16 13

Z

M37 13

C37 12 37 10 37 10

L37 9

L39 10

C40 11 42 11 43 11

L44 11

L44 9

L44 7

L40 7

L37 7

L37 6

L37 5

L38 5

L40 5

L38 4

C36 3 35 4 35 7

C35 8 35 11 35 12

L35 15

L34 15

L32 14

L32 15

L32 16

L35 16

L37 16

L37 13

Z

M114 15

C113 14 112 14 112 14

L111 14

L111 15

L111 16

L113 16

L114 16

L114 15

Z

M126 14

L126 12

L122 12

L117 12

L117 11

L117 10

L120 10

L123 11

L123 8

L123 6

L120 6

L117 6

L117 4

L117 3

L116 4

C115 4 115 5 115 7

C115 8 115 10 115 11

C115 11 115 12 115 13

L115 14

L120 14

L124 14

L124 15

L123 16

L124 16

L126 16

L126 14

Z

M132 14

L130 13

L129 13

L129 14

L129 15

C130 16 131 16 132 16

L133 16

L132 14

Z

M62 10

C63 9 62 8 61 6

L60 5

L60 8

L60 11

L58 12

C58 12 56 12 56 11

C55 11 54 10 54 10

L53 10

L53 11

L53 12

L55 13

C58 14 61 13 62 10

Z

M138 13

L138 12

L137 12

L136 12

L136 8

C136 6 136 4 136 4

L136 3

L135 4

C133 5 133 11 134 13

C135 13 136 14 137 14

L138 14

L138 13

Z

M142 9

L142 5

L141 4

L140 4

L140 9

L140 13

L141 13

L142 12

L142 9

Z

M56 5

L56 4

L55 4

C54 4 53 5 53 6

L53 7

L54 7

C55 7 56 6 56 5

Z

M93 15

C93 15 93 12 93 9

L93 3

L94 3

L95 3

L95 5

C95 6 95 7 95 8

L96 8

L98 6

C99 4 101 3 101 3

L102 3

L100 5

L99 7

L101 11

L104 14

L103 15

L103 15

L100 12

C99 10 97 9 97 9

C96 9 95 10 94 12

L93 16

L93 15

Z

M97 2

C96 0 96 0 99 0

L101 1

L99 2

L97 4

L97 2

Z

"/>

<path fill="#e49d9e" stroke="none" d="
M0 15

L0 12

L2 13

L4 13

L4 12

L4 11

L3 11

L2 11

L2 9

L2 6

L4 6

C7 4 14 5 16 6

L17 8

L16 10

L15 12

L12 11

L9 11

L9 12

C9 12 10 13 10 14

L12 16

L16 13

C18 11 20 9 20 9

C20 6 14 2 12 3

C10 3 7 3 5 4

L0 4

L0 2

L0 0

L16 0

L32 0

L32 2

L31 4

L32 4

L33 4

L33 3

L33 2

L35 2

L37 2

L36 3

C35 4 35 6 35 7

C35 8 35 11 35 12

L35 15

L34 15

L33 15

L33 13

L33 12

L32 13

C31 13 31 14 31 15

L31 16

L34 16

L37 16

L37 13

C37 12 37 10 37 10

L37 9

L39 10

C40 11 42 11 43 11

L44 11

L44 9

L44 7

L40 7

L37 7

L37 6

L37 5

L41 5

L46 5

L45 2

L45 0

L50 0

L54 0

L54 1

C54 1 53 2 52 3

C49 4 48 8 49 12

L51 16

L53 16

L56 16

L53 13

C49 10 49 8 52 5

C54 3 55 2 57 2

C64 2 67 9 62 14

L59 16

L61 16

C66 16 69 8 66 4

C65 3 64 2 63 2

C63 2 62 2 62 1

L61 0

L66 0

L71 0

L70 8

L70 16

L73 16

L76 16

L77 14

L77 12

L79 12

L80 12

L80 14

L81 16

L84 16

L87 16

L87 10

C87 4 86 3 85 2

L83 0

L87 0

L91 0

L90 8

L90 16

L93 16

L97 16

L97 14

L97 12

L99 14

C100 15 101 16 104 16

L107 16

L107 15

C107 15 106 13 105 11

C101 7 101 7 104 5

C105 4 106 2 106 1

L106 0

L109 0

L111 0

L111 2

L111 4

L112 3

C113 3 115 2 118 2

L122 2

L121 4

L121 5

L123 5

L126 4

L125 2

L125 0

L127 0

L130 0

L130 8

L130 15

L131 16

L133 16

L132 9

L132 2

L136 2

C141 2 144 4 144 8

C144 11 143 12 141 14

L139 16

L141 16

C143 16 147 12 147 9

C147 6 144 2 142 2

L141 2

L141 1

L141 0

L146 0

L150 0

L150 9

L150 18

L75 18

L0 18

L0 15

Z

M113 14

L111 13

L110 13

L110 14

L110 15

C111 16 112 16 113 16

L115 16

L113 14

Z

M126 14

L126 12

L122 12

L117 12

L117 11

L117 10

L120 10

L123 11

L123 8

L123 6

L120 6

L117 6

L117 4

L117 3

L116 4

C115 4 115 5 115 7

C115 8 115 10 115 11

C115 11 115 12 115 13

L115 14

L120 14

L124 14

L124 15

L123 16

L124 16

L126 16

L126 14

Z

M62 10

C64 6 60 2 55 4

L53 5

L53 9

L53 12

L55 13

C58 14 61 13 62 10

Z

M139 13

L142 12

L142 8

L142 5

L140 4

L139 4

L138 5

L138 5

L139 6

L140 6

L140 9

L140 11

L140 11

C139 11 138 11 137 12

L136 12

L136 8

C136 6 136 4 136 4

L136 3

L135 4

C133 5 133 11 134 13

C135 14 136 14 139 13

Z

M73 15

C73 14 73 11 73 8

L73 3

L78 2

C82 2 83 2 84 4

L85 6

L84 7

C83 8 83 10 84 12

L84 15

L83 15

C83 14 82 13 82 12

L82 10

L80 10

L78 10

L80 9

C81 8 82 7 82 6

L82 4

L81 4

L80 4

L80 6

L80 7

L78 7

L77 7

L77 5

L78 4

L76 3

L75 3

L75 8

C75 11 75 14 74 14

L73 15

L73 15

Z

M93 15

C93 15 93 12 93 9

L93 3

L94 3

L95 3

L95 5

C95 6 95 7 95 8

L96 8

L98 6

C99 4 101 3 101 3

L102 3

L100 5

L99 7

L101 11

L104 14

L103 15

L103 15

L100 12

C99 10 97 9 97 9

C96 9 95 10 94 12

L93 16

L93 15

Z

M97 2

C96 0 96 0 99 0

L101 1

L99 2

L97 4

L97 2

Z

M56 11

L55 11

L55 9

L55 6

L56 6

C57 6 58 5 59 6

L60 6

L60 8

L60 11

L59 11

C58 11 57 12 56 11

Z

"/>

<path fill="#dea3a2" stroke="none" d="
M0 16

L0 13

L2 13

L4 13

L4 12

L4 11

L3 11

L2 11

L2 9

L2 6

L8 6

C13 5 15 5 16 6

L17 8

L16 10

L15 12

L12 11

L9 11

L9 12

C9 12 10 13 10 14

L12 16

L16 13

C18 11 20 9 20 9

C20 6 14 2 12 3

C10 3 7 3 5 4

L0 4

L0 2

L0 0

L16 0

L32 0

L32 2

L31 4

L32 4

L33 5

L33 4

L33 2

L35 2

L37 2

L36 3

C35 4 35 6 35 7

C35 8 35 11 35 12

L35 15

L34 15

L33 15

L33 13

L33 12

L32 13

C31 13 31 14 31 14

L31 16

L33 16

C33 17 35 17 36 16

L37 16

L37 13

L37 11

L41 11

L44 11

L44 9

L43 7

L41 7

C40 7 39 7 38 6

L37 6

L41 5

L46 5

L45 2

L45 0

L50 0

L55 0

L52 2

C48 5 48 8 49 12

C50 15 54 18 56 17

L56 16

L53 13

C49 10 49 8 52 5

C54 3 55 2 57 2

C64 2 67 9 62 14

L59 16

L61 16

C66 16 69 8 66 4

C65 3 64 2 63 2

C63 2 62 2 62 1

L61 0

L66 0

L71 0

L70 8

L70 16

L72 16

C74 17 77 16 77 13

L77 12

L79 12

L80 12

L80 13

C80 15 83 17 85 17

L87 16

L87 10

C87 4 86 3 85 2

L83 0

L87 0

L91 0

L90 8

L90 16

L92 16

C93 17 94 17 95 16

L97 16

L97 14

L97 12

L99 14

C102 17 105 18 107 16

L107 15

L105 12

C101 7 101 7 104 5

C105 4 106 2 106 1

L106 0

L109 0

L111 0

L111 3

L110 5

L112 4

C113 3 114 2 115 2

L117 2

L116 3

C116 4 115 6 115 7

C115 8 115 10 115 11

C115 11 115 12 115 13

L115 14

L119 14

L123 14

L123 16

L123 17

L124 17

C125 17 126 15 126 14

L126 12

L122 12

L117 12

L117 11

L117 10

L120 10

L123 11

L123 8

L122 5

L124 5

L126 4

L126 2

L125 0

L127 0

L130 0

L129 7

C129 13 129 15 130 16

L132 17

L133 16

L134 15

L133 15

L132 15

L132 9

L132 2

L136 2

C141 2 144 4 144 8

C144 12 143 14 138 15

L136 16

L139 16

C142 16 143 15 145 13

C148 10 148 6 144 3

L141 0

L145 0

L150 0

L150 9

L150 18

L75 18

L0 18

L0 16

Z

M114 16

L115 15

L112 14

L110 13

L110 14

C110 15 112 17 113 17

C114 17 114 17 114 16

Z

M62 10

C64 6 60 2 55 4

L53 5

L53 9

L53 12

L55 13

C58 14 61 13 62 10

Z

M139 13

L142 12

L142 8

L142 5

L140 4

L139 4

L138 5

L138 5

L139 6

L140 6

L140 9

L140 11

L140 11

C139 11 138 11 137 12

L136 12

L136 8

C136 6 136 4 136 4

L136 3

L135 4

C133 5 133 11 134 13

C135 14 136 14 139 13

Z

M73 15

C73 14 73 11 73 8

L73 3

L75 2

L78 2

L76 3

C76 3 75 6 75 8

C75 11 75 14 74 14

L73 15

L73 15

Z

M83 14

C82 14 82 13 82 12

L82 10

L81 10

L80 10

L81 8

C82 6 82 6 81 4

L80 2

L81 2

C82 2 83 3 84 4

L85 6

L84 7

C83 8 83 10 84 12

L84 15

L84 15

C84 15 83 15 83 14

Z

M93 15

C93 15 93 12 93 9

L93 3

L94 3

L95 3

L95 5

C95 6 95 7 95 8

L96 8

L98 6

C99 4 101 3 101 3

L102 3

L100 5

L99 7

L101 11

L104 14

L103 15

L103 15

L100 12

C99 10 97 9 97 9

C96 9 95 10 94 12

L93 16

L93 15

Z

M77 6

L77 5

L79 5

L80 5

L80 6

L80 7

L79 7

L77 7

L77 6

Z

M97 2

C96 0 96 0 99 0

L101 1

L99 2

L97 4

L97 2

Z

M56 11

L55 11

L55 9

L55 6

L56 6

C57 6 58 5 59 6

L60 6

L60 8

L60 11

L59 11

C58 11 57 12 56 11

Z

"/>

<path fill="#e5a4a7" stroke="none" d="
M0 16

L0 13

L5 13

C9 13 10 13 11 15

L12 16

L16 13

C18 11 20 9 20 9

C20 6 14 2 11 2

C10 3 7 3 4 4

L0 4

L0 2

L0 0

L16 0

L32 0

L31 8

L31 16

L32 16

C33 17 35 17 36 16

L37 16

L37 13

L37 11

L41 11

L44 11

L44 9

L43 7

L41 7

C40 7 39 7 38 6

L37 6

L41 5

L46 5

L45 2

L45 0

L50 0

L55 0

L52 2

C48 5 48 8 49 12

C50 15 54 18 56 17

L56 16

L53 13

C49 10 49 8 52 5

C54 3 55 2 57 2

C64 2 67 9 62 14

L59 16

L61 16

C66 16 69 8 66 4

C65 3 64 2 63 2

C63 2 62 2 62 1

L61 0

L66 0

L71 0

L70 8

L70 16

L72 16

C74 17 77 16 77 13

L77 12

L79 12

L80 12

L80 13

C80 15 83 17 85 17

L87 16

L87 10

C87 4 86 3 85 2

L83 0

L87 0

L91 0

L90 8

L90 16

L92 16

C93 17 94 17 95 16

L97 16

L97 14

L97 12

L99 14

C101 16 103 17 104 17

L107 17

L107 16

C107 15 106 13 105 11

C101 7 101 7 104 5

C105 4 106 2 106 1

L106 0

L108 0

L111 0

L110 7

C110 13 110 15 111 16

L113 17

L114 16

L115 16

L114 15

C113 15 113 12 113 8

L113 3

L115 2

L117 2

L116 3

C116 4 115 6 115 7

C115 8 115 10 115 11

C115 11 115 12 115 13

L115 14

L119 14

L123 14

L123 16

L123 17

L124 17

C125 17 126 15 126 14

L126 12

L122 12

L117 12

L117 11

L117 10

L120 10

L123 11

L123 8

L122 5

L124 5

L126 4

L126 2

L125 0

L127 0

L130 0

L129 7

C129 13 129 15 130 16

L132 17

L133 16

L134 15

L133 15

L132 15

L132 9

L132 2

L136 2

C141 2 144 4 144 8

C144 12 143 14 138 15

L136 16

L139 16

C142 16 143 15 145 13

C148 10 148 6 144 3

L141 0

L145 0

L150 0

L150 9

L150 18

L75 18

L0 18

L0 16

Z

M62 10

C64 6 60 2 55 4

L53 5

L53 9

L53 12

L55 13

C58 14 61 13 62 10

Z

M139 13

L142 12

L142 8

L142 5

L140 4

L139 4

L138 5

L138 5

L139 6

L140 6

L140 9

L140 11

L140 11

C139 11 138 11 137 12

L136 12

L136 8

C136 6 136 4 136 4

L136 3

L135 4

C133 5 133 11 134 13

C135 14 136 14 139 13

Z

M33 9

L33 2

L35 2

L37 2

L36 3

C35 4 35 6 35 7

C35 8 35 11 35 12

L35 15

L34 15

L33 15

L33 9

Z

M73 15

C73 14 73 11 73 8

L73 3

L75 2

L78 2

L76 3

C76 3 75 6 75 8

C75 11 75 14 74 14

L73 15

L73 15

Z

M83 14

C82 14 82 13 82 12

L82 10

L81 10

L80 10

L81 8

C82 6 82 6 81 4

L80 2

L81 2

C82 2 83 3 84 4

L85 6

L84 7

C83 8 83 10 84 12

L84 15

L84 15

C84 15 83 15 83 14

Z

M93 15

C93 15 93 12 93 9

L93 3

L94 3

L95 3

L95 5

C95 6 95 7 95 8

L96 8

L98 6

C99 4 101 3 101 3

L102 3

L100 5

L99 7

L101 11

L104 14

L103 15

L103 15

L100 12

C99 10 97 9 97 9

C96 9 95 10 94 12

L93 16

L93 15

Z

M7 11

L2 11

L2 9

L2 6

L8 6

C13 5 15 5 16 6

L17 8

L16 10

L15 12

L14 12

C13 12 10 11 7 11

Z

M77 6

L77 5

L79 5

L80 5

L80 6

L80 7

L79 7

L77 7

L77 6

Z

M97 2

C96 0 96 0 99 0

L101 1

L99 2

L97 4

L97 2

Z

M56 11

L55 11

L55 9

L55 6

L56 6

C57 6 58 5 59 6

L60 6

L60 8

L60 11

L59 11

C58 11 57 12 56 11

Z

"/>

<path fill="#ebadad" stroke="none" d="
M0 16

L0 13

L5 13

C8 13 11 14 11 15

L12 16

L16 13

C18 11 20 9 20 8

C20 8 18 6 16 4

L13 1

L12 2

C11 2 8 3 5 3

L0 4

L0 2

L0 0

L15 0

L31 0

L31 8

L32 17

L34 17

L37 17

L37 14

L37 11

L41 11

L44 11

L44 9

L43 7

L41 7

C40 7 39 7 38 6

L37 6

L41 5

L46 5

L45 2

L45 0

L49 0

L53 0

L53 1

L53 2

L51 2

C51 3 50 4 49 6

C47 10 49 15 53 16

L57 18

L28 18

L0 18

L0 16

Z

M61 17

C65 15 67 12 67 8

C67 5 65 2 63 2

L62 2

L62 1

L62 0

L66 0

L71 0

L70 8

L70 16

L72 16

C74 17 77 16 77 13

L77 12

L79 12

L80 12

L80 13

C80 15 83 17 85 17

L87 16

L87 9

L87 3

L85 2

L84 2

L84 1

L84 0

L87 0

L91 0

L90 8

L90 16

L92 16

C93 17 94 17 95 16

L97 16

L97 14

L97 12

L99 14

C101 16 103 17 104 17

L107 17

L107 16

C107 15 106 13 105 11

C101 7 101 7 104 5

C105 4 106 2 106 1

L106 0

L108 0

L111 0

L110 7

C110 16 110 17 119 17

L126 17

L126 14

L126 12

L122 12

L117 12

L117 11

L117 10

L120 10

L123 11

L123 8

L123 5

L125 5

L126 4

L126 2

L125 0

L127 0

L130 0

L129 7

C129 16 130 17 137 17

C146 16 150 9 144 3

L141 0

L145 0

L150 0

L150 9

L150 18

L104 18

L59 18

L61 17

Z

M56 15

C54 15 50 11 50 9

C50 8 51 6 52 5

C55 1 60 1 62 4

C67 9 62 16 56 15

Z

M62 10

C64 6 60 2 55 4

L53 5

L53 9

L53 12

L55 13

C58 14 61 13 62 10

Z

M33 9

L33 2

L35 2

L37 2

L36 3

C35 4 35 6 35 7

C35 8 35 11 35 12

L35 15

L34 15

L33 15

L33 9

Z

M73 15

C73 14 73 11 73 8

L73 3

L75 2

L78 2

L76 3

C76 3 75 6 75 8

C75 11 75 14 74 14

L73 15

L73 15

Z

M83 14

C82 14 82 13 82 12

L82 10

L81 10

L80 10

L81 8

C82 6 82 6 81 4

L80 2

L81 2

C82 2 83 3 84 4

L85 6

L84 7

C83 8 83 10 84 12

L84 15

L84 15

C84 15 83 15 83 14

Z

M93 15

C93 15 93 12 93 9

L93 3

L94 3

L95 3

L95 5

C95 6 95 7 95 8

L96 8

L98 6

C99 4 101 3 101 3

L102 3

L100 5

L99 7

L101 11

L104 14

L103 15

L103 15

L100 12

C99 10 97 9 97 9

L96 9

L94 12

L93 16

L93 15

Z

M113 15

C113 15 113 12 113 9

L113 3

L114 2

L116 2

L115 6

C115 8 115 10 115 11

C115 11 115 12 115 13

L115 14

L119 14

L124 15

L118 15

L113 15

L113 15

Z

M132 9

L132 2

L134 2

L136 2

L135 4

C133 6 133 12 135 13

C136 14 138 14 139 13

L142 12

L142 8

L142 5

L140 4

L138 4

L138 3

L138 2

L139 2

C141 2 144 5 144 9

C144 13 141 15 136 15

L132 15

L132 9

Z

M7 11

L2 11

L2 9

L2 6

L8 6

C13 5 15 5 16 6

L17 8

L16 10

L15 12

L14 12

C13 12 10 11 7 11

Z

M136 9

L136 5

L136 5

C137 5 138 5 138 6

L140 6

L140 9

L140 11

L138 11

C138 12 137 12 136 12

L136 12

L136 9

Z

M77 6

L77 5

L79 5

L80 5

L80 6

L80 7

L79 7

L77 7

L77 6

Z

M97 2

C96 2 96 1 96 0

L96 0

L98 0

L100 0

L100 1

C100 1 99 2 99 3

L97 4

L97 2

Z

M56 11

L55 11

L55 9

L55 6

L56 6

C57 6 58 5 59 6

L60 6

L60 8

L60 11

L59 11

C58 11 57 12 56 11

Z

"/>

<path fill="#ecb8b8" stroke="none" d="
M0 16

L0 13

L5 13

C8 13 11 14 11 15

L12 16

L16 13

C18 11 20 9 20 8

C20 8 18 6 16 4

L13 1

L12 2

C11 2 8 3 5 3

L0 4

L0 2

L0 0

L15 0

L31 0

L31 8

L32 17

L34 17

L37 17

L37 14

L37 11

L41 11

L44 11

L44 9

C44 8 43 7 43 6

L42 6

L44 5

L46 4

L46 2

L46 0

L50 0

L53 0

L51 2

C48 6 48 8 49 12

L51 16

L52 16

C53 16 54 16 55 17

L55 18

L28 18

L0 18

L0 16

Z

M61 17

C67 14 69 7 64 3

L62 0

L66 0

L71 0

L71 8

L71 17

L73 17

C75 17 76 16 76 14

C77 13 78 12 79 12

C79 12 80 13 81 14

C81 16 82 17 84 17

L86 17

L87 10

C87 6 86 3 85 2

L84 0

L87 0

L91 0

L90 8

C90 12 90 16 91 16

C92 18 97 16 97 14

L98 12

L100 15

L103 18

L81 18

L59 18

L61 17

Z

M107 16

C107 16 106 13 105 12

C101 7 101 7 104 5

C105 4 106 2 106 1

L106 0

L108 0

L111 0

L110 7

C110 13 110 14 112 16

L113 18

L110 18

L106 18

L107 16

Z

M125 17

C125 16 126 15 126 14

L126 12

L123 12

L121 12

L122 11

L123 11

L123 8

L123 5

L125 5

L126 4

L126 2

L125 0

L127 0

L130 0

L129 7

C129 16 129 17 136 17

C140 17 142 17 144 14

C148 10 148 7 144 3

L142 0

L146 0

L150 0

L150 9

L150 18

L137 18

L124 18

L125 17

Z

M56 15

C54 15 50 11 50 8

C50 8 51 6 52 4

L55 2

L56 2

L56 3

L55 4

C54 5 53 6 53 9

L53 12

L55 13

C61 15 65 8 60 4

L59 3

L59 2

L60 2

L62 3

C67 8 63 16 56 15

Z

M33 9

L33 2

L34 2

L36 2

L35 6

C35 9 35 12 35 13

L35 15

L34 15

L33 15

L33 9

Z

M73 15

C73 14 73 11 73 8

L73 3

L74 2

L76 2

L75 8

C75 11 75 14 74 14

L73 15

L73 15

Z

M83 14

C82 14 82 13 82 12

L82 10

L83 11

C84 11 84 13 84 13

L84 15

L83 14

Z

M93 15

C93 15 93 12 93 9

L93 3

L94 3

L95 3

L95 5

C95 6 95 7 95 8

L96 8

L97 7

C98 6 99 5 99 5

L100 5

L99 6

C99 7 100 9 101 11

L104 14

L103 15

L103 15

L100 12

C99 10 97 9 97 9

L96 9

L94 12

L93 16

L93 15

Z

M113 15

C113 15 113 12 113 9

L112 3

L114 2

C115 2 115 2 116 2

L116 3

L115 4

L114 6

L115 7

C115 8 115 9 115 10

L114 12

L116 13

L117 15

L115 15

L113 15

L113 15

Z

M132 9

L132 2

L134 2

L135 2

L135 3

C135 3 135 4 134 4

C133 6 134 12 135 13

C136 14 138 14 139 13

L142 12

L142 8

L142 5

L140 4

L138 4

L138 3

L138 2

L139 2

C141 2 144 5 144 9

C144 13 141 15 136 15

L132 15

L132 9

Z

M7 11

L2 11

L2 9

L2 6

L8 6

C13 5 15 5 16 6

L17 8

L16 10

L15 12

L14 12

C13 12 10 11 7 11

Z

M136 9

L136 5

L136 5

C137 5 138 5 138 6

L140 6

L140 9

L140 11

L138 11

C138 12 137 12 136 12

L136 12

L136 9

Z

M55 9

L55 6

L56 6

C57 5 58 6 59 6

L60 6

L60 9

L60 11

L58 11

L55 11

L55 9

Z

M82 7

C83 6 82 5 81 4

L80 2

L81 2

C82 2 83 3 84 4

C85 6 85 8 83 8

L82 8

L82 7

Z

M77 6

L77 5

L79 5

L80 5

L80 6

L80 7

L79 7

L77 7

L77 6

Z

M97 2

C96 2 96 1 96 0

L96 0

L98 0

L100 0

L100 1

C100 1 99 2 99 3

L97 4

L97 2

Z

"/>

<path fill="#f1c6c6" stroke="none" d="
M0 16

L0 13

L5 13

C8 13 11 14 11 15

L12 16

L16 13

C18 11 20 9 20 9

C20 7 14 1 12 1

L11 1

L11 2

C11 2 8 3 5 3

L0 4

L0 2

L0 0

L16 0

L31 0

L31 8

C31 13 31 16 32 17

L33 18

L17 18

L0 18

L0 16

Z

M36 17

C36 16 37 15 37 13

L37 11

L41 11

L44 11

L44 9

C44 8 43 7 43 6

L42 6

L44 5

L46 4

L46 2

L46 0

L50 0

L53 0

L51 2

C50 3 49 5 49 7

C48 9 50 14 52 16

L55 18

L45 18

L35 18

L36 17

Z

M63 16

C68 12 68 7 64 3

L62 0

L66 0

L71 0

L70 8

C70 12 70 16 71 17

L72 18

L66 18

L61 18

L63 16

Z

M76 15

L77 12

L79 12

L80 12

L81 15

L82 18

L79 18

L75 18

L76 15

Z

M86 17

C87 14 87 4 85 2

L84 0

L87 0

L91 0

L90 8

C90 12 90 16 91 17

L92 18

L89 18

L85 18

L86 17

Z

M96 17

C96 16 97 15 97 14

L98 12

L100 15

L102 18

L98 18

L95 18

L96 17

Z

M107 16

C107 15 106 13 105 11

C103 10 102 8 102 8

C102 6 108 0 109 0

L111 0

L110 7

C110 11 110 14 111 16

L112 18

L110 18

L107 18

L107 16

Z

M126 15

L126 12

L123 12

L121 12

L122 11

L123 11

L123 8

L123 5

L125 5

L126 4

L126 2

L126 0

L128 0

L130 0

L129 7

C129 11 129 15 130 16

L131 18

L128 18

L125 18

L126 15

Z

M144 15

C148 10 148 7 144 3

L142 0

L146 0

L150 0

L150 9

L150 18

L145 18

L140 18

L144 15

Z

M33 9

L33 2

L34 2

L36 2

L35 6

C35 9 35 12 35 13

L35 15

L34 15

L33 15

L33 9

Z

M53 13

C50 10 50 6 53 4

L55 2

L56 2

L56 3

L55 4

C54 5 53 6 53 9

C53 13 56 14 59 13

C62 12 62 11 62 7

L62 5

L63 5

C65 7 64 12 62 13

C60 16 55 15 53 13

Z

M73 15

C73 14 73 11 73 8

L73 3

L74 2

L76 2

L75 4

C75 6 75 7 75 8

C76 9 75 10 75 11

C74 13 74 14 74 14

L74 14

L74 15

L73 15

L73 15

Z

M93 15

C93 15 93 12 93 9

L92 3

L94 3

L95 3

L95 5

L94 7

L95 8

L96 8

L97 7

L98 6

L99 7

C99 7 100 9 102 11

L104 14

L103 15

L103 15

L100 12

C99 10 97 9 97 9

L96 9

L94 12

L93 16

L93 15

Z

M113 15

C113 15 113 12 113 9

L113 3

L114 2

L115 2

L115 7

C115 10 115 13 115 14

L116 15

L115 15

L113 15

L113 15

Z

M132 9

L132 2

L134 2

L135 2

L135 3

C135 3 135 4 134 4

C134 5 134 7 134 9

C134 10 134 12 134 13

C135 13 135 14 135 14

L135 15

L134 15

L132 15

L132 9

Z

M142 10

L142 6

L143 6

L144 6

L144 9

C144 11 143 13 142 13

L141 13

L142 10

Z

M7 11

L2 11

L2 9

L2 6

L8 6

C13 5 15 5 16 6

L17 8

L16 10

L15 12

L14 12

C13 12 10 11 7 11

Z

M136 9

L136 5

L136 5

C137 5 138 5 138 6

L140 6

L140 9

L140 11

L138 11

C138 12 137 12 136 12

L136 12

L136 9

Z

M55 9

L55 6

L58 6

L60 6

L60 9

L60 11

L58 11

L55 11

L55 9

Z

M82 7

C83 6 82 5 82 4

L81 3

L81 2

L82 2

L83 4

C85 5 85 7 83 8

L82 8

L82 7

Z

M97 2

L96 0

L98 0

L100 0

L99 2

C98 3 98 4 98 4

L97 4

L97 2

Z

"/>

<path fill="#f5d5d6" stroke="none" d="
M0 15

L0 13

L5 13

C8 14 11 14 11 15

L12 16

L16 13

C18 11 20 9 20 9

C20 8 19 6 17 5

C16 4 14 2 14 1

L13 0

L22 0

L31 0

L31 9

L32 18

L16 18

L0 18

L0 15

Z

M37 15

L37 11

L41 11

L44 11

L44 8

L43 5

L45 5

L46 4

L46 2

L46 0

L49 0

L52 0

L50 4

C48 7 48 8 49 11

C50 13 51 15 52 16

L53 18

L45 18

L36 18

L37 15

Z

M63 16

C67 12 68 7 65 3

L63 0

L66 0

L70 0

L70 7

C70 11 70 16 71 16

L71 18

L66 18

L61 18

L63 16

Z

M76 16

C77 15 77 13 77 13

L77 12

L78 12

L80 12

L80 14

C81 15 81 17 81 17

L81 18

L78 18

L76 18

L76 16

Z

M87 10

C87 6 86 3 86 2

C85 2 85 1 85 1

L85 0

L88 0

L90 0

L90 7

C90 11 90 16 91 16

L91 18

L89 18

L86 18

L87 10

Z

M97 15

C97 14 97 12 98 12

L98 12

L99 15

L101 18

L99 18

L96 18

L97 15

Z

M108 17

L108 16

L105 12

C103 10 102 8 102 7

C102 6 108 0 109 0

L110 0

L110 1

C110 1 110 5 110 10

L111 18

L109 18

L107 18

L108 17

Z

M126 15

L126 12

L124 12

L122 12

L123 9

C123 7 124 5 125 5

C125 4 126 3 126 2

L126 0

L128 0

L129 0

L129 1

C129 1 129 5 129 10

L130 18

L127 18

L125 18

L126 15

Z

M144 14

C148 10 148 8 145 3

L143 0

L146 0

L150 0

L150 9

L150 18

L145 18

L141 18

L144 14

Z

M73 8

L73 3

L74 2

L75 2

L75 8

L75 14

L74 14

L73 14

L73 8

Z

M7 11

L2 11

L2 9

L2 6

L8 6

C13 5 15 5 16 6

L17 8

L16 10

L15 12

L14 12

C13 12 10 11 7 11

Z

M51 10

C51 9 50 8 51 7

L52 6

L53 6

C53 7 53 8 53 10

L52 13

L51 10

Z

M93 10

L93 7

L95 8

L96 8

L96 9

C96 9 96 10 95 10

L95 12

L94 12

L93 12

L93 10

Z

M136 9

L136 5

L136 5

C137 5 138 5 138 6

L140 6

L140 9

L140 11

L138 11

C138 12 137 12 136 12

L136 12

L136 9

Z

M55 9

L55 6

L58 6

L60 6

L60 9

L60 11

L58 11

L55 11

L55 9

Z

M142 9

L142 6

L143 6

L144 6

L144 9

L144 11

L143 11

L142 11

L142 9

Z

M82 5

L82 3

L83 3

L84 3

L84 5

C85 5 85 6 85 7

L85 7

L84 7

L82 7

L82 5

Z

M1 3

L0 3

L0 1

L0 0

L6 0

L11 0

L11 2

L11 3

L8 3

C6 3 5 3 4 3

C3 4 2 4 1 3

Z

M97 2

L97 0

L99 0

L100 0

L99 2

C98 3 98 4 97 4

L97 4

L97 2

Z

"/>

<path fill="#f9e7e6" stroke="none" d="
M0 16

L0 14

L2 14

C5 13 10 14 11 15

L12 16

L16 13

C18 11 20 9 20 9

C20 8 19 6 17 5

C15 3 14 2 14 1

L14 0

L22 0

L30 0

L30 2

C31 2 31 7 31 11

L31 18

L16 18

L0 18

L0 16

Z

M37 15

L38 12

L41 11

L44 11

L44 8

L44 5

L45 5

L46 5

L46 3

L47 0

L50 0

L52 0

L50 4

C48 7 48 8 49 11

C50 13 51 15 52 16

L53 18

L45 18

L37 18

L37 15

Z

M65 14

C68 10 68 7 65 3

L63 0

L66 0

L70 0

L70 9

L71 18

L66 18

L62 18

L65 14

Z

M76 16

C77 15 77 13 77 13

L77 12

L78 12

L80 12

L80 14

C81 15 81 17 81 17

L81 18

L78 18

L76 18

L76 16

Z

M87 14

C86 11 86 8 87 7

C87 5 87 3 86 2

L85 0

L87 0

L90 0

L90 9

L90 18

L89 18

L87 18

L87 14

Z

M97 16

L97 13

L98 13

C98 13 99 14 100 16

L101 18

L99 18

L96 18

L97 16

Z

M108 17

C108 16 107 14 105 12

C103 10 102 8 102 7

C102 6 108 0 109 0

L110 0

L110 1

C110 1 110 5 110 10

L111 18

L109 18

L108 18

L108 17

Z

M126 15

L126 12

L124 12

L122 12

L123 9

C123 7 124 5 125 5

C125 4 126 3 126 2

L126 0

L128 0

L129 0

L129 1

C129 1 129 5 129 10

L130 18

L128 18

L126 18

L126 15

Z

M142 18

C142 18 143 16 145 14

C148 10 148 8 145 3

L143 0

L146 0

L150 0

L150 9

L150 18

L146 18

L142 18

L142 18

Z

M7 11

L2 11

L2 9

L2 6

L8 6

C13 5 15 5 16 6

L17 8

L16 10

L15 12

L14 12

C13 12 10 11 7 11

Z

M137 11

C136 11 136 10 136 8

L136 6

L138 6

L140 7

L140 9

L140 11

L139 11

C138 12 137 12 137 11

Z

M55 9

L56 7

L58 7

L60 7

L60 9

L60 11

L58 11

L55 11

L55 9

Z

M1 3

L0 3

L0 1

L0 0

L6 0

L11 0

L11 2

L11 3

L8 3

C6 3 5 3 4 3

C3 4 2 4 1 3

Z

M97 2

L97 0

L98 0

L99 0

L99 2

L99 3

L98 3

L97 3

L97 2

Z

"/>

<path fill="#fcf5f3" stroke="none" d="
M0 16

L0 14

L2 14

C3 13 5 13 7 13

L11 14

L11 15

L11 17

L11 17

C12 17 20 9 20 8

C20 8 19 6 17 5

C16 3 14 2 14 1

L14 0

L22 0

L30 0

L30 2

C31 4 31 14 30 16

L30 18

L15 18

L0 18

L0 16

Z

M37 16

C37 12 38 11 41 11

L44 11

L44 8

L44 5

L45 5

L46 5

L46 3

L47 0

L49 0

L51 0

L51 1

C50 2 50 4 49 6

C48 8 48 9 50 13

L52 18

L45 18

L38 18

L37 16

Z

M65 14

C67 9 67 7 66 3

L64 1

L66 0

L68 0

L69 1

C70 2 70 6 70 10

L70 18

L66 18

L63 18

L65 14

Z

M77 15

L77 12

L79 12

L80 12

L80 15

L80 18

L79 18

L77 18

L77 15

Z

M87 15

C87 14 87 10 87 6

L86 0

L88 0

L89 0

L89 2

C90 2 90 7 90 11

L90 18

L89 18

L87 18

L87 15

Z

M97 16

L97 14

L98 14

C99 14 99 15 100 16

L100 18

L98 18

L97 18

L97 16

Z

M108 17

C108 16 107 14 105 12

C103 10 102 8 102 7

C102 7 103 5 105 3

L108 0

L109 1

C110 2 110 6 110 10

L110 18

L109 18

L108 18

L108 17

Z

M126 15

L126 12

L124 12

L123 12

L123 9

L123 5

L124 5

C125 5 126 4 126 2

L127 0

L128 1

C129 2 129 6 129 10

L129 18

L128 18

L127 18

L126 15

Z

M143 17

C143 16 144 14 145 13

C147 10 147 7 146 4

C145 3 144 2 144 1

L144 0

L147 0

L150 0

L150 9

L150 18

L147 18

L143 18

L143 17

Z

M2 9

L2 6

L8 6

C13 5 15 6 16 7

L17 8

L16 10

C15 11 13 11 8 11

L2 11

L2 9

Z

M55 9

C55 7 56 6 58 6

L60 7

L60 9

L60 11

L58 11

L56 11

L55 9

Z

M136 9

L136 6

L138 6

L140 7

L140 9

L140 10

L138 11

L136 11

L136 9

Z

M1 2

L0 2

L0 1

L0 0

L5 0

L10 0

L10 2

L10 3

L6 3

C4 3 2 3 1 2

Z

"/>

<path fill="#f9faf6" stroke="none" d="
M0 17

L0 15

L2 15

C2 14 5 14 6 14

L10 14

L10 16

L11 18

L5 18

L0 18

L0 17

Z

M13 16

C13 16 15 14 17 12

C22 9 22 8 19 6

C17 5 16 3 16 2

L15 0

L22 0

L29 0

L29 2

C30 2 30 7 30 11

L30 18

L22 18

L13 18

L13 16

Z

M37 16

C37 13 38 12 41 12

L44 12

L44 9

C44 8 45 6 45 5

C46 5 47 3 47 2

L48 0

L49 0

L50 0

L50 1

C50 2 50 3 49 4

C47 5 48 10 50 14

L52 18

L45 18

L38 18

L37 16

Z

M65 16

C65 15 65 13 66 13

C67 11 67 5 66 5

L65 4

L66 2

L66 0

L68 0

L69 0

L69 2

C70 2 70 7 70 11

L70 18

L67 18

L64 18

L65 16

Z

M77 17

C77 17 77 15 78 14

L78 13

L79 14

C80 15 80 16 80 17

L80 18

L79 18

L77 18

L77 17

Z

M88 16

C88 14 88 13 87 12

C86 12 87 1 88 0

L88 0

L89 1

C90 3 90 15 89 17

L88 19

L88 16

Z

M126 15

C126 13 125 12 125 12

L123 11

L124 8

C124 7 125 4 126 3

L128 0

L128 2

C129 2 129 7 129 11

L129 18

L128 18

L127 18

L126 15

Z

M143 17

C143 16 144 14 145 13

C147 10 147 9 145 2

L145 0

L147 0

L150 0

L150 9

L150 18

L147 18

L143 18

L143 17

Z

M105 11

C102 9 102 6 106 3

L109 0

L109 2

C110 3 110 5 110 8

L110 13

L109 13

C108 13 106 12 105 11

Z

M2 9

C1 7 3 6 10 6

L16 7

L16 9

L16 11

L9 11

L3 11

L2 9

Z

M56 9

L56 7

L58 7

L59 7

L59 9

L59 10

L58 10

L56 10

L56 9

Z

M1 2

L0 2

L0 1

L0 0

L5 0

L9 0

L9 2

L9 3

L6 3

C4 3 2 3 1 2

Z

"/>

<path fill="#fcf8f7" stroke="none" d="
M0 17

L0 15

L2 15

C2 14 5 14 6 14

L10 14

L10 16

L11 18

L5 18

L0 18

L0 17

Z

M13 16

C13 16 15 14 17 12

C22 9 22 8 19 6

C17 5 16 3 16 2

L15 0

L22 0

L29 0

L29 2

C30 4 30 14 29 16

L29 18

L21 18

L13 18

L13 16

Z

M37 16

C37 13 38 12 41 12

L44 12

L44 9

C44 8 45 6 45 5

C46 5 47 3 47 2

L48 0

L49 0

L50 0

L50 1

C50 2 50 3 49 4

C48 4 48 6 48 9

L48 13

L49 13

C49 13 50 14 51 16

L52 18

L45 18

L38 18

L37 16

Z

M64 17

C65 16 65 15 66 13

C67 11 67 5 66 5

L65 4

L66 2

L66 0

L68 0

L69 0

L69 2

C70 2 70 7 70 11

L70 18

L67 18

L64 18

L64 17

Z

M77 17

C77 17 77 15 78 14

L78 13

L79 14

C80 15 80 16 80 17

L80 18

L79 18

L77 18

L77 17

Z

M88 16

C88 14 88 13 87 12

C86 12 87 1 88 0

L88 0

L89 1

C90 3 90 15 89 17

L88 19

L88 16

Z

M126 15

C126 13 125 12 125 12

L123 11

L124 8

C124 7 125 4 126 3

L128 0

L128 2

C129 2 129 7 129 11

L129 18

L128 18

L127 18

L126 15

Z

M145 16

C147 13 147 4 146 3

C145 3 145 2 145 1

L145 0

L148 0

L150 0

L150 9

L150 18

L147 18

L144 18

L145 16

Z

M105 11

C102 9 102 6 106 3

L109 0

L109 2

C110 3 110 5 110 8

L110 13

L109 13

C108 13 106 12 105 11

Z

M2 10

C1 7 3 6 8 6

C12 6 14 7 15 7

L16 9

L16 10

C15 11 12 11 9 11

L3 11

L2 10

Z

M56 9

L56 7

L58 7

L59 7

L59 9

L59 10

L58 10

L56 10

L56 9

Z

M1 2

L0 2

L0 1

L0 0

L5 0

L9 0

L9 2

L9 3

L6 3

C4 3 2 3 1 2

Z

"/>

<path fill="#fcfbf8" stroke="none" d="
M0 17

L0 15

L2 15

C2 14 5 14 7 14

L10 14

L10 16

C9 16 9 17 9 18

L9 18

L5 18

L0 18

L0 17

Z

M14 16

C14 15 16 13 18 12

C20 10 21 9 21 8

C21 8 20 6 18 4

L15 1

L21 0

C26 0 29 0 29 1

C30 3 30 14 29 16

L29 18

L21 18

L13 18

L14 16

Z

M38 15

L38 12

L41 12

L43 12

L44 9

L45 6

L46 5

L48 5

L48 9

C48 11 49 13 49 14

L51 15

L50 17

L50 18

L44 18

L38 18

L38 15

Z

M64 17

C64 16 65 14 66 13

C68 10 69 5 67 5

C66 4 66 3 66 2

L66 0

L68 0

L69 0

L69 9

L69 18

L67 18

L64 18

L64 17

Z

M88 16

C88 14 88 10 88 6

L87 0

L88 0

L89 0

L89 2

C90 4 90 15 89 17

L88 19

L88 16

Z

M145 16

C146 14 147 11 147 8

C147 5 147 2 147 1

L147 0

L149 0

L150 0

L150 9

L150 18

L147 18

L144 18

L145 16

Z

M106 11

C103 9 104 6 106 3

L109 0

L109 2

C110 2 110 5 110 8

L110 13

L109 13

C108 13 106 12 106 11

Z

M124 8

L124 5

L126 5

L128 5

L128 8

L128 11

L126 11

L124 11

L124 8

Z

M3 9

C3 6 5 6 10 6

L14 7

L14 9

L14 10

L9 10

L3 10

L3 9

Z

M0 1

L0 0

L5 0

L9 0

L9 1

L9 2

L5 2

L0 2

L0 1

Z

"/>

<path fill="#fcfafa" stroke="none" d="
M0 17

L0 15

L2 15

C2 14 5 14 7 14

L10 14

L10 16

C9 16 9 17 9 18

L9 18

L5 18

L0 18

L0 17

Z

M14 16

C14 15 16 13 18 12

L20 10

L20 11

L19 12

L20 12

C22 10 21 8 18 4

L15 1

L21 0

C26 0 29 0 29 1

C30 3 30 14 29 16

L29 18

L21 18

L13 18

L14 16

Z

M38 15

L38 12

L41 12

L43 12

L44 9

L45 6

L46 5

L48 5

L48 9

L48 14

L49 15

L51 15

L50 17

L50 18

L44 18

L38 18

L38 15

Z

M64 17

C65 15 66 13 68 13

L69 13

L69 16

L69 18

L67 18

L64 18

L64 17

Z

M88 16

C88 14 88 10 88 6

L87 0

L88 0

L89 0

L89 2

C90 4 90 15 89 17

L88 19

L88 16

Z

M145 15

C147 14 147 11 147 8

C147 5 147 2 147 1

L147 0

L149 0

L150 0

L150 9

L150 18

L147 18

L144 18

L145 15

Z

M106 11

C103 9 104 6 106 3

L109 0

L109 2

C110 2 110 5 110 8

L110 13

L109 13

C108 13 106 12 106 11

Z

M124 8

L124 5

L126 5

L128 5

L128 8

L128 11

L126 11

L124 11

L124 8

Z

M3 9

C3 6 5 6 10 6

L14 7

L14 9

L14 10

L9 10

L3 10

L3 9

Z

"/>

<path fill="#f9fdfb" stroke="none" d="
M0 17

L0 15

L3 14

C4 14 6 14 7 14

L10 15

L9 17

L9 18

L4 18

L0 18

L0 17

Z

M15 16

C16 14 17 13 19 12

C22 11 22 7 19 5

L17 3

L18 1

L18 0

L24 0

L29 0

L29 2

C30 4 30 14 29 16

L29 18

L21 18

L14 18

L15 16

Z

M39 16

C38 15 38 14 38 13

C40 11 46 12 48 14

L51 16

L50 17

L50 18

L44 18

L39 18

L39 16

Z

M65 16

C65 15 66 13 67 13

L69 13

L69 15

L69 18

L67 18

L64 18

L65 16

Z

M146 14

C148 10 148 9 147 6

C147 4 147 2 147 1

L147 0

L149 0

L150 0

L150 9

L150 18

L147 18

L144 18

L146 14

Z

M106 12

C104 10 105 3 108 3

L109 3

L109 8

L109 13

L108 13

C108 13 107 13 106 12

Z

M124 9

L124 6

L124 6

C125 6 126 6 126 5

L128 5

L128 8

L128 11

L126 11

L124 11

L124 9

Z

"/>

<path fill="#fdfcfc" stroke="none" d="
M2 17

L2 15

L4 15

C6 14 8 14 8 15

L10 15

L9 17

L9 18

L5 18

L2 18

L2 17

Z

M15 16

C16 14 17 13 19 12

C22 11 22 7 19 5

L17 3

L18 1

L18 0

L24 0

L29 0

L29 2

C31 5 30 15 29 17

C28 18 25 18 21 18

L14 18

L15 16

Z

M39 16

C38 13 39 12 42 12

L45 12

L46 14

L46 16

L49 15

L51 15

L50 16

L50 18

L44 18

L39 18

L39 16

Z

M147 16

C147 15 147 14 147 12

C148 11 148 9 148 8

L148 5

L149 5

L150 5

L150 12

L150 18

L149 18

L147 18

L147 16

Z

M106 12

C104 10 105 3 108 3

L109 3

L109 8

L109 13

L108 13

C108 13 107 13 106 12

Z

M124 9

L124 6

L124 6

C125 6 126 6 126 5

L128 5

L128 8

L128 11

L126 11

L124 11

L124 9

Z

"/>

<path fill="#fcfdfe" stroke="none" d="
M2 17

L2 15

L6 15

L10 15

L9 17

L9 18

L5 18

L2 18

L2 17

Z

M15 16

C16 15 16 14 17 14

L18 14

L18 15

L19 17

L20 15

L21 14

L22 14

L24 15

L23 13

L23 11

L24 11

C24 11 25 12 26 12

L27 14

L27 12

C27 11 25 10 24 10

C23 10 22 9 22 8

C21 7 20 5 19 5

L17 3

L18 1

L18 0

L23 0

C29 0 30 2 30 9

C30 17 29 18 21 18

L14 18

L15 16

Z

M39 16

C38 13 39 12 42 12

L45 12

L46 14

L46 16

L48 15

L50 15

L50 16

L50 18

L45 18

L39 18

L39 16

Z

"/>

</svg>

