<?xml version="1.0" standalone="no"?>
<!DOCTYPE svg PUBLIC "-//W3C//DTD SVG 20010904//EN"
 "http://www.w3.org/TR/2001/REC-SVG-20010904/DTD/svg10.dtd">
<svg version="1.0" xmlns="http://www.w3.org/2000/svg"
 width="1529.000000pt" height="108.000000pt" viewBox="0 0 1529.000000 108.000000"
 preserveAspectRatio="xMidYMid meet">

<g transform="translate(0.000000,108.000000) scale(0.100000,-0.100000)"
fill="#000000" stroke="none">
<path d="M7909 951 c-90 -17 -184 -81 -214 -146 -8 -16 -19 -51 -24 -76 -22
-98 38 -214 132 -256 72 -34 107 -43 247 -63 98 -15 138 -28 149 -48 32 -62
-87 -101 -216 -71 -57 14 -119 44 -153 76 -14 13 -30 23 -36 23 -6 0 -31 -18
-55 -39 -24 -21 -57 -50 -74 -64 -37 -31 -31 -45 41 -99 109 -84 271 -119 453
-100 145 15 229 64 270 156 18 42 19 187 1 223 -23 47 -72 93 -125 118 -54 25
-96 35 -246 59 -125 20 -149 29 -149 58 0 48 12 52 127 52 100 0 113 -2 154
-26 25 -15 51 -34 59 -42 7 -9 20 -16 29 -16 20 0 141 114 141 134 0 24 -91
91 -164 120 -58 23 -88 28 -185 31 -64 2 -137 0 -162 -4z m284 -45 c88 -23
177 -75 177 -103 0 -18 -69 -82 -88 -83 -8 0 -26 8 -40 18 -111 74 -279 83
-352 17 -28 -25 -25 -67 6 -98 27 -27 64 -37 210 -57 142 -19 232 -61 278
-130 22 -33 26 -51 26 -110 0 -84 -26 -144 -80 -182 -116 -83 -407 -80 -552 5
-51 30 -88 61 -87 73 0 5 23 28 51 52 l50 43 31 -25 c67 -54 140 -76 251 -76
100 0 137 14 161 61 34 64 -9 105 -131 125 -227 36 -293 58 -349 119 -37 39
-45 64 -45 135 0 39 6 80 13 92 35 61 84 99 159 122 58 19 243 20 311 2z"/>
<path d="M11945 950 c-144 -31 -276 -148 -312 -275 -35 -127 -35 -186 4 -323
40 -139 169 -241 334 -263 182 -25 331 29 427 154 45 58 52 84 25 94 -10 4
-51 28 -92 55 -80 52 -95 52 -121 1 -20 -37 -31 -48 -74 -72 -70 -40 -175 -20
-229 42 -29 33 -50 123 -44 188 6 72 31 123 75 157 32 24 44 27 114 27 l79 0
37 -40 c20 -22 44 -51 53 -64 l16 -25 49 30 c27 16 60 35 74 42 14 7 36 21 49
31 l23 18 -20 39 c-31 59 -94 117 -168 153 -57 28 -78 32 -162 36 -53 2 -115
0 -137 -5z m220 -40 c3 -5 16 -10 29 -10 33 0 126 -66 163 -117 l33 -43 -38
-23 c-20 -13 -52 -32 -69 -41 -32 -16 -33 -16 -50 5 -56 68 -108 97 -179 98
-82 2 -150 -36 -195 -107 -27 -43 -29 -53 -29 -144 0 -86 3 -104 26 -148 17
-32 42 -60 72 -80 41 -27 53 -30 122 -30 67 0 83 4 116 26 21 15 42 32 46 38
3 6 16 22 27 35 l21 23 65 -38 c37 -23 65 -46 65 -55 0 -9 -24 -42 -54 -72
-60 -60 -118 -88 -230 -108 -59 -11 -75 -10 -158 10 -213 52 -304 179 -296
411 3 89 8 114 31 163 47 99 127 167 242 205 40 13 232 15 240 2z"/>
<path d="M3410 942 c-6 -2 -19 -23 -30 -46 -19 -44 -28 -65 -78 -201 -62 -169
-104 -281 -117 -310 -7 -16 -21 -52 -30 -80 -9 -27 -20 -60 -26 -72 -5 -13
-13 -33 -18 -45 -5 -13 -13 -35 -19 -50 -6 -14 -8 -29 -5 -32 13 -12 220 -6
230 7 6 6 18 35 28 62 10 28 23 56 28 63 7 8 50 12 156 12 l146 0 24 -63 c13
-34 28 -68 34 -74 6 -9 44 -13 124 -13 127 0 137 5 110 63 -9 17 -23 55 -32
82 -9 28 -20 59 -25 70 -11 24 -47 118 -90 235 -43 115 -64 169 -81 202 -5 10
-9 26 -9 36 0 10 -3 22 -7 26 -5 4 -17 33 -28 64 l-21 57 -127 5 c-70 3 -132
3 -137 2z m246 -59 c3 -10 10 -26 15 -35 5 -10 9 -24 9 -33 0 -8 9 -34 20 -57
10 -24 35 -87 55 -141 20 -55 40 -106 45 -115 5 -10 19 -46 31 -82 12 -36 25
-69 30 -74 5 -6 9 -19 9 -31 0 -12 4 -25 9 -30 15 -17 53 -134 46 -145 -7 -11
-116 -14 -151 -4 -12 3 -25 20 -33 42 -7 20 -19 52 -27 69 l-15 33 -175 0
-175 0 -19 -42 c-11 -24 -20 -49 -20 -57 0 -33 -32 -51 -91 -51 -88 0 -91 3
-69 58 10 26 28 74 40 107 12 33 27 71 32 85 15 35 24 59 38 100 7 19 19 49
26 67 8 18 23 58 33 90 11 32 35 96 53 143 19 47 38 93 41 103 6 15 21 17 122
17 101 0 116 -2 121 -17z"/>
<path d="M3513 747 c-6 -6 -18 -39 -28 -72 -10 -33 -21 -64 -25 -70 -3 -5 -13
-30 -20 -55 -7 -25 -17 -49 -20 -55 -4 -5 -10 -26 -14 -46 -8 -47 -3 -49 129
-49 122 0 128 6 94 91 -12 30 -28 77 -36 104 -8 28 -18 55 -22 60 -4 6 -14 29
-21 53 -15 49 -23 57 -37 39z m26 -109 c5 -18 21 -64 35 -103 14 -38 26 -76
26 -82 0 -9 -21 -13 -74 -13 -70 0 -100 10 -76 25 5 3 10 15 10 26 0 10 5 28
10 39 6 11 15 29 20 40 6 11 10 26 10 34 0 15 20 66 26 66 2 0 7 -15 13 -32z"/>
<path d="M196 918 c-9 -34 -7 -791 2 -806 7 -9 80 -12 333 -10 l324 3 0 95 0
95 -207 3 -208 2 0 304 c0 168 -3 311 -6 320 -5 13 -25 16 -119 16 -108 0
-113 -1 -119 -22z m204 -320 c0 -167 4 -309 8 -315 6 -9 64 -13 212 -15 l205
-3 3 -62 c3 -58 1 -63 -20 -68 -13 -3 -147 -4 -298 -3 l-275 3 -3 383 -2 382
85 0 85 0 0 -302z"/>
<path d="M965 928 c-3 -7 -4 -195 -3 -418 l3 -405 115 0 115 0 0 415 0 415
-113 3 c-84 2 -114 -1 -117 -10z m193 -410 l-3 -383 -75 0 -75 0 -3 383 -2
382 80 0 80 0 -2 -382z"/>
<path d="M1352 523 l3 -418 285 -3 c306 -3 350 3 423 52 98 66 114 254 31 346
l-34 37 21 19 c36 33 49 70 49 144 0 115 -45 177 -160 221 -45 17 -78 19 -335
19 l-285 0 2 -417z m653 342 c117 -74 130 -232 24 -302 -37 -25 -39 -27 -23
-44 10 -11 21 -19 25 -19 23 0 61 -49 75 -97 28 -96 -12 -195 -97 -239 -15 -7
-67 -18 -116 -24 -95 -11 -471 -14 -497 -4 -14 5 -16 49 -16 386 l0 379 288
-3 289 -3 48 -30z"/>
<path d="M1563 759 c-16 -16 -17 -122 -3 -150 10 -17 23 -19 151 -19 98 0 150
4 174 14 59 25 73 84 31 133 l-24 28 -159 3 c-118 3 -161 0 -170 -9z m327 -54
c6 -16 6 -34 0 -50 l-10 -26 -142 3 -143 3 -3 48 -3 47 146 0 145 0 10 -25z"/>
<path d="M1560 451 c-5 -11 -10 -47 -10 -81 0 -102 -4 -100 173 -100 134 0
156 2 185 20 23 14 32 28 33 47 5 119 -18 133 -221 133 -137 0 -150 -2 -160
-19z m325 -33 c36 -16 35 -69 -2 -98 -24 -19 -37 -20 -157 -18 l-131 3 -3 49
c-5 78 -9 76 137 76 77 0 140 -5 156 -12z"/>
<path d="M2265 927 c-3 -6 -4 -194 -3 -417 l3 -405 115 0 115 0 3 137 3 138
26 6 c14 4 69 4 122 1 126 -8 135 -18 144 -145 4 -49 11 -101 17 -116 9 -26
10 -26 125 -26 96 0 117 3 122 16 3 8 1 20 -6 27 -6 6 -11 36 -12 67 -1 85
-22 181 -47 223 -13 20 -28 37 -33 37 -5 0 -9 7 -9 15 0 8 3 15 8 15 13 0 57
44 69 70 29 64 35 113 19 174 -27 101 -66 144 -160 176 -54 18 -86 20 -338 20
-214 0 -280 -3 -283 -13z m610 -40 c101 -40 138 -94 138 -202 0 -90 -29 -141
-98 -170 -48 -19 -58 -46 -20 -54 64 -12 85 -56 105 -225 9 -71 8 -91 -2 -97
-17 -11 -129 -11 -146 0 -9 5 -16 42 -20 103 -11 151 -40 179 -192 186 -54 2
-114 2 -134 -2 l-36 -7 0 -138 c0 -158 4 -151 -86 -151 -102 0 -94 -32 -94
389 0 202 3 371 7 374 12 13 546 6 578 -6z"/>
<path d="M2478 764 c-5 -4 -8 -52 -8 -106 l0 -98 155 0 155 0 32 29 c28 25 33
36 33 75 0 36 -6 51 -28 73 -27 28 -29 28 -180 31 -83 2 -155 0 -159 -4z m314
-51 c27 -24 23 -69 -8 -98 -26 -24 -33 -25 -155 -25 l-129 0 0 70 0 70 137 0
c113 0 140 -3 155 -17z"/>
<path d="M4055 927 c-3 -6 -4 -194 -3 -417 l3 -405 118 -3 117 -3 0 134 c0
109 3 137 15 147 12 10 43 11 122 7 140 -8 148 -15 156 -135 4 -48 11 -100 15
-117 l8 -30 120 0 c113 0 119 1 116 20 -2 11 -7 58 -12 105 -12 142 -33 209
-71 233 -21 13 -26 37 -8 37 22 0 68 59 80 102 13 50 7 175 -12 210 -23 42
-81 87 -142 108 -56 18 -85 20 -339 20 -214 0 -280 -3 -283 -13z m610 -40 c63
-25 97 -53 121 -99 58 -113 7 -256 -99 -282 -33 -8 -34 -38 -2 -45 37 -7 71
-40 83 -79 14 -47 34 -230 26 -243 -6 -11 -134 -12 -150 -1 -6 4 -14 47 -18
96 -11 153 -45 187 -194 194 -55 2 -116 2 -136 -2 l-36 -7 0 -138 c0 -158 4
-151 -90 -151 -99 0 -90 -37 -90 384 0 205 3 376 7 379 12 13 546 6 578 -6z"/>
<path d="M4265 758 c-3 -8 -5 -55 -3 -104 l3 -89 154 -3 154 -3 29 27 c49 48
47 130 -5 164 -32 22 -325 28 -332 8z m317 -45 c29 -26 24 -78 -11 -103 -27
-19 -41 -20 -153 -18 l-123 3 -3 68 -3 67 137 0 c114 0 141 -3 156 -17z"/>
<path d="M4870 929 c0 -13 250 -382 262 -387 4 -2 8 -8 8 -14 0 -5 10 -24 23
-41 20 -29 22 -46 27 -207 l5 -175 109 -3 c71 -2 113 1 122 9 11 9 14 48 14
180 l0 168 125 191 c69 105 125 193 125 196 0 2 9 14 20 26 11 12 20 32 20 45
l0 24 -121 -3 -122 -3 -40 -65 c-22 -36 -48 -79 -58 -97 -34 -60 -64 -103 -72
-103 -4 0 -13 11 -19 25 -6 14 -15 25 -20 25 -4 0 -8 5 -8 10 0 6 -30 55 -67
110 l-66 100 -134 0 c-88 0 -133 -4 -133 -11z m346 -175 c53 -80 101 -143 107
-141 11 3 131 190 164 255 l17 32 88 0 c48 0 88 -2 88 -4 0 -3 -65 -104 -145
-225 l-144 -220 -3 -158 -3 -158 -75 0 -75 0 -3 158 -3 158 -144 214 c-80 118
-145 219 -145 225 0 6 35 10 90 10 l90 0 96 -146z"/>
<path d="M6016 924 c-11 -29 -7 -159 6 -172 8 -8 50 -12 123 -12 60 0 116 -4
122 -8 10 -6 13 -85 15 -317 l3 -310 115 0 115 0 5 315 5 315 100 2 c156 4
146 -3 143 106 l-3 92 -371 3 c-333 2 -372 1 -378 -14z m717 -86 l2 -58 -117
0 c-82 0 -119 -4 -125 -12 -4 -7 -10 -152 -13 -323 l-5 -310 -80 0 -80 0 -3
309 c-1 208 -6 314 -13 323 -8 9 -43 13 -130 13 l-119 0 0 53 c0 30 3 57 7 60
4 4 157 6 341 5 l334 -3 1 -57z"/>
<path d="M6866 924 c-8 -20 -8 -788 0 -808 5 -14 47 -16 368 -16 268 0 365 3
374 12 16 16 16 149 0 171 -12 15 -42 17 -257 19 l-244 3 1 53 c0 28 1 57 1
62 1 6 63 10 167 10 95 0 174 4 185 10 16 9 19 22 19 81 0 114 8 109 -194 109
-95 0 -175 2 -177 4 -2 2 -2 29 -1 60 l4 56 234 0 c220 0 234 1 244 19 11 21
13 112 4 149 l-6 22 -358 0 c-317 0 -359 -2 -364 -16z m694 -84 l0 -60 -240 0
-241 0 3 -92 3 -93 173 -3 172 -2 0 -60 0 -60 -172 -2 -173 -3 -3 -97 c-1 -54
-1 -99 0 -100 2 -1 113 -5 248 -8 l245 -5 3 -54 c2 -37 -1 -57 -10 -62 -15
-10 -628 -12 -652 -3 -14 5 -16 49 -16 385 l0 379 330 0 330 0 0 -60z"/>
<path d="M8477 933 c-4 -3 -7 -46 -7 -94 0 -70 3 -88 16 -93 9 -3 64 -6 122
-6 59 0 113 -4 119 -8 10 -6 13 -85 15 -317 l3 -310 115 0 115 0 3 318 2 317
113 0 c61 0 118 4 125 8 9 6 12 33 10 98 l-3 89 -371 3 c-204 1 -373 -1 -377
-5z m713 -93 l0 -60 -114 0 c-81 0 -117 -4 -123 -12 -4 -7 -10 -152 -13 -323
l-5 -310 -80 0 -80 0 -3 309 c-1 208 -6 314 -13 323 -8 9 -43 13 -130 13
l-119 0 0 53 c0 30 3 57 7 60 3 4 156 7 340 7 l333 0 0 -60z"/>
<path d="M9582 523 l3 -418 109 -3 c71 -2 113 1 122 9 10 9 14 40 14 123 l0
112 38 36 37 37 65 -86 c36 -48 70 -91 75 -97 6 -6 22 -27 35 -46 14 -19 36
-47 49 -63 l24 -27 139 0 c109 0 138 3 138 13 0 12 -53 84 -151 207 -11 14
-30 38 -42 54 -12 16 -47 61 -78 100 -30 39 -63 82 -72 96 l-16 25 154 160
c85 88 154 166 155 173 0 9 -32 12 -129 12 l-130 0 -93 -97 c-51 -53 -114
-119 -139 -145 -26 -26 -49 -48 -53 -48 -3 0 -6 58 -6 129 0 71 -3 136 -6 145
-5 13 -26 16 -125 16 l-119 0 2 -417z m206 210 c2 -127 5 -163 16 -163 7 0 84
74 171 165 l157 165 84 0 c46 0 84 -3 84 -7 -1 -5 -61 -71 -135 -148 -74 -77
-135 -146 -135 -153 0 -8 17 -35 38 -60 20 -26 43 -53 49 -62 103 -127 250
-326 247 -332 -8 -13 -167 -9 -191 5 -19 11 -55 55 -212 260 -24 32 -47 60
-51 62 -4 3 -32 -20 -61 -50 l-54 -55 -5 -113 -5 -112 -80 0 -80 0 -5 378 c-3
208 -3 381 0 383 2 3 40 3 85 2 l80 -3 3 -162z"/>
<path d="M10498 924 c-2 -10 -1 -198 2 -418 l5 -401 115 0 115 0 0 415 0 415
-117 3 c-103 2 -117 1 -120 -14z m200 -406 l-3 -383 -60 -3 c-32 -2 -69 -1
-82 3 l-23 5 0 380 0 380 85 0 85 0 -2 -382z"/>
<path d="M10846 924 c-12 -31 -7 -161 7 -172 7 -6 64 -13 128 -14 l114 -3 3
-304 c1 -208 6 -309 14 -318 8 -10 38 -13 122 -11 l111 3 5 315 5 315 100 2
c156 4 146 -3 143 106 l-3 92 -371 3 c-333 2 -372 1 -378 -14z m712 -86 l3
-58 -114 0 c-83 0 -118 -4 -126 -13 -7 -9 -12 -115 -13 -323 l-3 -309 -80 0
-80 0 -3 309 c-1 208 -6 314 -13 323 -8 9 -43 13 -130 13 l-119 0 0 60 0 60
338 -2 337 -3 3 -57z"/>
<path d="M12516 924 c-9 -24 -7 -797 2 -812 6 -9 37 -12 118 -10 l109 3 5 160
5 160 170 0 170 0 3 -163 2 -163 118 3 117 3 0 415 0 415 -117 3 -118 3 0
-150 c0 -126 -2 -150 -16 -155 -20 -8 -298 -8 -318 0 -14 5 -16 28 -16 155 l0
149 -114 0 c-95 0 -115 -3 -120 -16z m204 -168 c0 -122 2 -145 16 -150 31 -12
369 -7 382 6 8 8 12 56 12 150 l0 138 85 0 85 0 0 -379 c0 -427 8 -391 -85
-391 -89 0 -85 -8 -85 164 0 83 -4 157 -8 164 -7 9 -54 12 -203 10 l-194 -3
-3 -160 c-2 -112 -6 -161 -15 -167 -14 -9 -112 -10 -144 -2 l-23 6 0 372 c0
205 3 376 7 379 3 4 44 7 90 7 l83 0 0 -144z"/>
<path d="M13485 927 c-3 -6 -4 -194 -3 -417 l3 -405 370 0 370 0 0 95 0 95
-247 3 -248 2 0 65 0 65 168 0 c117 0 172 4 180 12 13 13 16 126 6 166 -6 22
-8 22 -180 22 l-174 0 0 60 0 60 238 2 237 3 3 93 3 92 -361 0 c-279 0 -362
-3 -365 -13z m695 -87 l0 -60 -242 -2 -243 -3 -3 -81 c-2 -59 1 -84 11 -92 8
-7 76 -13 183 -14 l169 -3 0 -55 0 -55 -180 -6 c-99 -3 -181 -6 -182 -7 -2 -1
-3 -42 -3 -92 0 -78 2 -91 19 -100 12 -6 112 -10 255 -10 l236 0 0 -60 c0 -54
-2 -60 -22 -65 -13 -3 -165 -4 -338 -3 l-315 3 -3 383 -2 382 330 0 330 0 0
-60z"/>
<path d="M14335 928 c-3 -7 -4 -195 -3 -418 l3 -405 110 0 110 0 5 250 5 250
35 -60 c73 -124 83 -141 100 -165 9 -14 20 -32 24 -40 3 -8 20 -35 36 -60 16
-25 39 -61 50 -80 11 -19 29 -48 39 -65 l18 -30 129 -3 c112 -2 130 0 141 15
10 13 13 107 13 397 0 210 -3 391 -6 404 -6 22 -9 23 -118 20 l-111 -3 -5
-233 -5 -232 -55 92 c-73 122 -86 145 -161 268 l-64 105 -143 3 c-108 2 -144
0 -147 -10z m282 -45 c4 -10 19 -37 35 -60 15 -23 28 -44 28 -47 0 -4 15 -30
34 -59 44 -70 116 -189 141 -235 11 -20 23 -39 26 -42 4 -3 16 -21 26 -40 11
-19 26 -35 34 -35 12 0 14 43 14 265 l0 265 73 3 72 3 -2 -383 -3 -383 -85 -3
c-108 -4 -122 0 -143 40 -9 18 -35 62 -57 97 -22 34 -40 65 -40 68 0 2 -17 30
-38 61 -22 31 -41 62 -43 67 -2 6 -19 35 -37 65 -75 125 -108 174 -119 178
-10 3 -13 -61 -15 -285 l-3 -288 -70 0 -70 0 -5 378 c-3 208 -3 381 -1 383 2
2 58 4 123 4 104 0 119 -2 125 -17z"/>
</g>
</svg>
