<?xml version="1.0" standalone="no"?>
<!DOCTYPE svg PUBLIC "-//W3C//DTD SVG 20010904//EN"
 "http://www.w3.org/TR/2001/REC-SVG-20010904/DTD/svg10.dtd">
<svg version="1.0" xmlns="http://www.w3.org/2000/svg"
 width="244.000000pt" height="72.000000pt" viewBox="0 0 244.000000 72.000000"
 preserveAspectRatio="xMidYMid meet">
<metadata>
Created by potrace 1.10, written by Peter Selinger 2001-2011
</metadata>
<g transform="translate(0.000000,72.000000) scale(0.100000,-0.100000)"
fill="#000000" stroke="none">
<path d="M152 592 c-9 -7 -12 -63 -10 -248 l3 -239 62 -3 c60 -3 63 -2 69 24
4 15 4 76 1 137 -4 61 -4 107 0 103 4 -4 15 -30 24 -59 10 -29 30 -86 46 -127
l29 -75 50 -3 c48 -3 52 -1 62 25 53 135 82 215 84 230 1 10 5 -43 8 -117 l5
-135 68 -3 67 -3 0 244 c0 214 -2 246 -16 251 -22 8 -147 7 -159 -2 -12 -8
-44 -87 -82 -204 -14 -43 -28 -78 -32 -78 -3 0 -19 42 -36 92 -51 157 -60 179
-75 188 -18 12 -150 13 -168 2z m163 -24 c2 -3 31 -82 88 -245 12 -35 26 -62
30 -60 8 2 37 77 76 197 10 30 25 69 33 85 15 29 18 30 84 29 l69 -1 0 -224 0
-224 -45 0 -45 0 -1 163 c0 89 -4 163 -8 165 -4 1 -16 -20 -25 -48 -17 -46
-30 -78 -89 -230 -18 -45 -23 -50 -55 -53 -38 -3 -33 -11 -83 128 -32 92 -75
193 -85 204 -5 6 -9 -60 -9 -161 l0 -171 -40 2 -41 1 0 223 c0 122 1 223 1
225 0 3 142 -1 145 -5z"/>
<path d="M925 580 c-74 -35 -117 -86 -140 -167 -14 -47 -14 -64 -4 -107 29
-123 90 -186 202 -207 200 -36 358 120 316 314 -11 51 -20 67 -65 113 -61 61
-97 74 -199 74 -48 0 -82 -6 -110 -20z m201 -10 c73 -25 118 -68 144 -137 25
-68 25 -89 -1 -160 -39 -106 -110 -154 -229 -156 -147 -2 -240 90 -240 235 0
109 62 189 173 224 59 18 85 17 153 -6z"/>
<path d="M975 486 c-39 -17 -51 -32 -65 -85 -25 -95 22 -184 105 -196 97 -15
157 37 163 140 2 47 -1 67 -18 93 -35 56 -118 77 -185 48z m126 -22 c76 -39
77 -179 2 -225 -107 -66 -223 58 -167 177 29 60 102 81 165 48z"/>
<path d="M1368 594 c-5 -4 -8 -117 -8 -251 l0 -244 73 3 72 3 0 83 0 82 71 0
c84 0 94 -8 100 -77 8 -96 6 -93 85 -93 l71 0 -6 26 c-4 14 -11 58 -16 97 -6
51 -14 76 -28 88 -19 15 -19 16 4 38 46 44 50 146 8 192 -42 46 -70 53 -249
57 -93 2 -173 1 -177 -4z m339 -29 c72 -12 114 -81 93 -154 -10 -35 -29 -55
-69 -72 l-24 -10 33 -17 c38 -20 60 -71 60 -144 l0 -47 -49 1 -49 0 -4 64 c-5
88 -21 102 -113 105 -114 3 -105 11 -105 -87 l0 -85 -47 3 -48 3 -3 215 c-1
118 -1 219 2 225 4 10 259 10 323 0z"/>
<path d="M1480 430 l0 -60 85 0 c109 0 135 11 135 60 0 54 -12 60 -122 60
l-98 0 0 -60z m188 34 c26 -18 28 -31 5 -56 -13 -14 -31 -18 -90 -18 l-73 0 0
45 0 45 68 0 c45 0 75 -5 90 -16z"/>
<path d="M1897 593 c-4 -3 -7 -116 -7 -250 l0 -243 214 0 214 0 4 56 c2 32 -1
58 -7 60 -5 2 -72 3 -148 1 l-137 -2 0 42 0 42 108 3 107 3 0 50 0 50 -107 3
-108 3 0 34 0 35 140 0 140 0 2 28 c2 46 -3 76 -15 84 -15 9 -391 11 -400 1z
m398 -55 l0 -33 -142 -3 -143 -3 0 -54 0 -55 105 0 105 0 0 -35 0 -35 -105 0
-105 0 0 -60 0 -60 151 0 150 0 -3 -37 -3 -38 -197 -1 -198 0 0 225 0 226 192
-2 193 -2 0 -33z"/>
</g>
</svg>
